ISO-10303-21;
HEADER;
/* Generated by software containing ST-Developer
 * from STEP Tools, Inc. (www.steptools.com) 
 */

FILE_DESCRIPTION(
/* description */ ('KiCad electronic assembly'),
/* implementation_level */ '2;1');

FILE_NAME(
/* name */ 'TxTroller_bottom.step',
/* time_stamp */ '2026-09-17T15:31:06+05:30',
/* author */ (''),
/* organization */ (''),
/* preprocessor_version */ 'ST-DEVELOPER v20.2',
/* originating_system */ 'Autodesk Translation Framework v15.15.0.0',
/* authorisation */ '');

FILE_SCHEMA (('AUTOMOTIVE_DESIGN { 1 0 10303 214 3 1 1 }'));
ENDSEC;

DATA;
#10=MECHANICAL_DESIGN_GEOMETRIC_PRESENTATION_REPRESENTATION('',(#17),#2233);
#11=ITEM_DEFINED_TRANSFORMATION($,$,#1341,#1461);
#12=(
REPRESENTATION_RELATIONSHIP($,$,#2244,#2243)
REPRESENTATION_RELATIONSHIP_WITH_TRANSFORMATION(#11)
SHAPE_REPRESENTATION_RELATIONSHIP()
);
#13=CONTEXT_DEPENDENT_SHAPE_REPRESENTATION(#12,#2242);
#14=NEXT_ASSEMBLY_USAGE_OCCURRENCE('Case:1','Case:1','Case:1',#2246,#2247,
'Case:1');
#15=SHAPE_REPRESENTATION_RELATIONSHIP('SRR','None',#2244,#16);
#16=ADVANCED_BREP_SHAPE_REPRESENTATION('',(#18),#2232);
#17=STYLED_ITEM('',(#2257),#18);
#18=MANIFOLD_SOLID_BREP('bottom',#1327);
#19=FACE_BOUND('',#201,.T.);
#20=FACE_BOUND('',#202,.T.);
#21=FACE_BOUND('',#203,.T.);
#22=PLANE('',#1350);
#23=PLANE('',#1351);
#24=PLANE('',#1354);
#25=PLANE('',#1363);
#26=PLANE('',#1366);
#27=PLANE('',#1367);
#28=PLANE('',#1368);
#29=PLANE('',#1369);
#30=PLANE('',#1370);
#31=PLANE('',#1379);
#32=PLANE('',#1380);
#33=PLANE('',#1383);
#34=PLANE('',#1392);
#35=PLANE('',#1395);
#36=PLANE('',#1396);
#37=PLANE('',#1401);
#38=PLANE('',#1402);
#39=PLANE('',#1403);
#40=PLANE('',#1404);
#41=PLANE('',#1405);
#42=PLANE('',#1406);
#43=PLANE('',#1407);
#44=PLANE('',#1408);
#45=PLANE('',#1409);
#46=PLANE('',#1410);
#47=PLANE('',#1411);
#48=PLANE('',#1412);
#49=PLANE('',#1413);
#50=PLANE('',#1414);
#51=PLANE('',#1415);
#52=PLANE('',#1416);
#53=PLANE('',#1417);
#54=PLANE('',#1418);
#55=PLANE('',#1419);
#56=PLANE('',#1420);
#57=PLANE('',#1421);
#58=PLANE('',#1422);
#59=PLANE('',#1425);
#60=PLANE('',#1449);
#61=PLANE('',#1452);
#62=PLANE('',#1456);
#63=PLANE('',#1457);
#64=PLANE('',#1458);
#65=PLANE('',#1459);
#66=PLANE('',#1460);
#67=SPHERICAL_SURFACE('',#1348,1.);
#68=SPHERICAL_SURFACE('',#1361,1.);
#69=SPHERICAL_SURFACE('',#1377,1.);
#70=SPHERICAL_SURFACE('',#1390,1.);
#71=SPHERICAL_SURFACE('',#1442,0.500000000000007);
#72=SPHERICAL_SURFACE('',#1446,0.499999999999998);
#73=SPHERICAL_SURFACE('',#1447,0.500000000000007);
#74=SPHERICAL_SURFACE('',#1448,0.500000000000007);
#75=FACE_OUTER_BOUND('',#150,.T.);
#76=FACE_OUTER_BOUND('',#151,.T.);
#77=FACE_OUTER_BOUND('',#152,.T.);
#78=FACE_OUTER_BOUND('',#153,.T.);
#79=FACE_OUTER_BOUND('',#154,.T.);
#80=FACE_OUTER_BOUND('',#155,.T.);
#81=FACE_OUTER_BOUND('',#156,.T.);
#82=FACE_OUTER_BOUND('',#157,.T.);
#83=FACE_OUTER_BOUND('',#158,.T.);
#84=FACE_OUTER_BOUND('',#159,.T.);
#85=FACE_OUTER_BOUND('',#160,.T.);
#86=FACE_OUTER_BOUND('',#161,.T.);
#87=FACE_OUTER_BOUND('',#162,.T.);
#88=FACE_OUTER_BOUND('',#163,.T.);
#89=FACE_OUTER_BOUND('',#164,.T.);
#90=FACE_OUTER_BOUND('',#165,.T.);
#91=FACE_OUTER_BOUND('',#166,.T.);
#92=FACE_OUTER_BOUND('',#167,.T.);
#93=FACE_OUTER_BOUND('',#168,.T.);
#94=FACE_OUTER_BOUND('',#169,.T.);
#95=FACE_OUTER_BOUND('',#170,.T.);
#96=FACE_OUTER_BOUND('',#171,.T.);
#97=FACE_OUTER_BOUND('',#172,.T.);
#98=FACE_OUTER_BOUND('',#173,.T.);
#99=FACE_OUTER_BOUND('',#174,.T.);
#100=FACE_OUTER_BOUND('',#175,.T.);
#101=FACE_OUTER_BOUND('',#176,.T.);
#102=FACE_OUTER_BOUND('',#177,.T.);
#103=FACE_OUTER_BOUND('',#178,.T.);
#104=FACE_OUTER_BOUND('',#179,.T.);
#105=FACE_OUTER_BOUND('',#180,.T.);
#106=FACE_OUTER_BOUND('',#181,.T.);
#107=FACE_OUTER_BOUND('',#182,.T.);
#108=FACE_OUTER_BOUND('',#183,.T.);
#109=FACE_OUTER_BOUND('',#184,.T.);
#110=FACE_OUTER_BOUND('',#185,.T.);
#111=FACE_OUTER_BOUND('',#186,.T.);
#112=FACE_OUTER_BOUND('',#187,.T.);
#113=FACE_OUTER_BOUND('',#188,.T.);
#114=FACE_OUTER_BOUND('',#189,.T.);
#115=FACE_OUTER_BOUND('',#190,.T.);
#116=FACE_OUTER_BOUND('',#191,.T.);
#117=FACE_OUTER_BOUND('',#192,.T.);
#118=FACE_OUTER_BOUND('',#193,.T.);
#119=FACE_OUTER_BOUND('',#194,.T.);
#120=FACE_OUTER_BOUND('',#195,.T.);
#121=FACE_OUTER_BOUND('',#196,.T.);
#122=FACE_OUTER_BOUND('',#197,.T.);
#123=FACE_OUTER_BOUND('',#198,.T.);
#124=FACE_OUTER_BOUND('',#199,.T.);
#125=FACE_OUTER_BOUND('',#200,.T.);
#126=FACE_OUTER_BOUND('',#204,.T.);
#127=FACE_OUTER_BOUND('',#205,.T.);
#128=FACE_OUTER_BOUND('',#206,.T.);
#129=FACE_OUTER_BOUND('',#207,.T.);
#130=FACE_OUTER_BOUND('',#208,.T.);
#131=FACE_OUTER_BOUND('',#209,.T.);
#132=FACE_OUTER_BOUND('',#210,.T.);
#133=FACE_OUTER_BOUND('',#211,.T.);
#134=FACE_OUTER_BOUND('',#212,.T.);
#135=FACE_OUTER_BOUND('',#213,.T.);
#136=FACE_OUTER_BOUND('',#214,.T.);
#137=FACE_OUTER_BOUND('',#215,.T.);
#138=FACE_OUTER_BOUND('',#216,.T.);
#139=FACE_OUTER_BOUND('',#217,.T.);
#140=FACE_OUTER_BOUND('',#218,.T.);
#141=FACE_OUTER_BOUND('',#219,.T.);
#142=FACE_OUTER_BOUND('',#220,.T.);
#143=FACE_OUTER_BOUND('',#221,.T.);
#144=FACE_OUTER_BOUND('',#222,.T.);
#145=FACE_OUTER_BOUND('',#223,.T.);
#146=FACE_OUTER_BOUND('',#224,.T.);
#147=FACE_OUTER_BOUND('',#225,.T.);
#148=FACE_OUTER_BOUND('',#226,.T.);
#149=FACE_OUTER_BOUND('',#227,.T.);
#150=EDGE_LOOP('',(#858,#859,#860,#861));
#151=EDGE_LOOP('',(#862,#863,#864,#865));
#152=EDGE_LOOP('',(#866,#867,#868));
#153=EDGE_LOOP('',(#869,#870,#871,#872,#873));
#154=EDGE_LOOP('',(#874,#875,#876,#877));
#155=EDGE_LOOP('',(#878,#879,#880,#881));
#156=EDGE_LOOP('',(#882,#883,#884,#885));
#157=EDGE_LOOP('',(#886,#887,#888,#889));
#158=EDGE_LOOP('',(#890,#891,#892,#893));
#159=EDGE_LOOP('',(#894,#895,#896));
#160=EDGE_LOOP('',(#897,#898,#899,#900));
#161=EDGE_LOOP('',(#901,#902,#903,#904));
#162=EDGE_LOOP('',(#905,#906,#907,#908));
#163=EDGE_LOOP('',(#909,#910,#911,#912));
#164=EDGE_LOOP('',(#913,#914,#915,#916));
#165=EDGE_LOOP('',(#917,#918,#919,#920,#921));
#166=EDGE_LOOP('',(#922,#923,#924,#925,#926,#927,#928,#929,#930,#931,#932,
#933,#934,#935));
#167=EDGE_LOOP('',(#936,#937,#938,#939));
#168=EDGE_LOOP('',(#940,#941,#942,#943));
#169=EDGE_LOOP('',(#944,#945,#946));
#170=EDGE_LOOP('',(#947,#948,#949,#950,#951));
#171=EDGE_LOOP('',(#952,#953,#954,#955));
#172=EDGE_LOOP('',(#956,#957,#958,#959));
#173=EDGE_LOOP('',(#960,#961,#962,#963));
#174=EDGE_LOOP('',(#964,#965,#966,#967));
#175=EDGE_LOOP('',(#968,#969,#970,#971));
#176=EDGE_LOOP('',(#972,#973,#974));
#177=EDGE_LOOP('',(#975,#976,#977,#978));
#178=EDGE_LOOP('',(#979,#980,#981,#982));
#179=EDGE_LOOP('',(#983,#984,#985,#986));
#180=EDGE_LOOP('',(#987,#988,#989,#990,#991,#992,#993,#994,#995,#996,#997,
#998,#999,#1000,#1001,#1002,#1003,#1004,#1005,#1006,#1007,#1008,#1009,#1010,
#1011,#1012,#1013,#1014,#1015,#1016,#1017,#1018,#1019,#1020,#1021,#1022));
#181=EDGE_LOOP('',(#1023,#1024,#1025,#1026));
#182=EDGE_LOOP('',(#1027,#1028,#1029,#1030));
#183=EDGE_LOOP('',(#1031,#1032,#1033,#1034,#1035,#1036,#1037,#1038,#1039,
#1040,#1041,#1042,#1043,#1044));
#184=EDGE_LOOP('',(#1045,#1046,#1047,#1048,#1049));
#185=EDGE_LOOP('',(#1050,#1051,#1052,#1053));
#186=EDGE_LOOP('',(#1054,#1055,#1056,#1057));
#187=EDGE_LOOP('',(#1058,#1059,#1060,#1061));
#188=EDGE_LOOP('',(#1062,#1063,#1064,#1065));
#189=EDGE_LOOP('',(#1066,#1067,#1068,#1069));
#190=EDGE_LOOP('',(#1070,#1071,#1072,#1073));
#191=EDGE_LOOP('',(#1074,#1075,#1076,#1077));
#192=EDGE_LOOP('',(#1078,#1079,#1080,#1081));
#193=EDGE_LOOP('',(#1082,#1083,#1084,#1085));
#194=EDGE_LOOP('',(#1086,#1087,#1088,#1089));
#195=EDGE_LOOP('',(#1090,#1091,#1092,#1093));
#196=EDGE_LOOP('',(#1094,#1095,#1096,#1097));
#197=EDGE_LOOP('',(#1098,#1099,#1100,#1101));
#198=EDGE_LOOP('',(#1102,#1103,#1104,#1105));
#199=EDGE_LOOP('',(#1106,#1107,#1108,#1109));
#200=EDGE_LOOP('',(#1110,#1111,#1112,#1113));
#201=EDGE_LOOP('',(#1114,#1115,#1116,#1117));
#202=EDGE_LOOP('',(#1118,#1119,#1120,#1121));
#203=EDGE_LOOP('',(#1122,#1123,#1124,#1125));
#204=EDGE_LOOP('',(#1126,#1127,#1128,#1129));
#205=EDGE_LOOP('',(#1130,#1131,#1132,#1133,#1134,#1135,#1136,#1137,#1138,
#1139));
#206=EDGE_LOOP('',(#1140,#1141,#1142,#1143));
#207=EDGE_LOOP('',(#1144,#1145,#1146,#1147));
#208=EDGE_LOOP('',(#1148,#1149,#1150,#1151));
#209=EDGE_LOOP('',(#1152,#1153,#1154,#1155));
#210=EDGE_LOOP('',(#1156,#1157,#1158,#1159));
#211=EDGE_LOOP('',(#1160,#1161,#1162,#1163));
#212=EDGE_LOOP('',(#1164,#1165,#1166,#1167));
#213=EDGE_LOOP('',(#1168,#1169,#1170));
#214=EDGE_LOOP('',(#1171,#1172,#1173,#1174));
#215=EDGE_LOOP('',(#1175,#1176,#1177));
#216=EDGE_LOOP('',(#1178,#1179,#1180));
#217=EDGE_LOOP('',(#1181,#1182,#1183));
#218=EDGE_LOOP('',(#1184,#1185,#1186,#1187));
#219=EDGE_LOOP('',(#1188,#1189,#1190,#1191));
#220=EDGE_LOOP('',(#1192,#1193,#1194,#1195));
#221=EDGE_LOOP('',(#1196,#1197,#1198,#1199));
#222=EDGE_LOOP('',(#1200,#1201,#1202,#1203));
#223=EDGE_LOOP('',(#1204,#1205,#1206,#1207));
#224=EDGE_LOOP('',(#1208,#1209,#1210,#1211,#1212,#1213,#1214,#1215,#1216,
#1217));
#225=EDGE_LOOP('',(#1218,#1219,#1220,#1221));
#226=EDGE_LOOP('',(#1222,#1223,#1224,#1225));
#227=EDGE_LOOP('',(#1226,#1227,#1228,#1229));
#228=LINE('',#1855,#370);
#229=LINE('',#1858,#371);
#230=LINE('',#1863,#372);
#231=LINE('',#1866,#373);
#232=LINE('',#1871,#374);
#233=LINE('',#1873,#375);
#234=LINE('',#1875,#376);
#235=LINE('',#1876,#377);
#236=LINE('',#1879,#378);
#237=LINE('',#1880,#379);
#238=LINE('',#1883,#380);
#239=LINE('',#1887,#381);
#240=LINE('',#1888,#382);
#241=LINE('',#1894,#383);
#242=LINE('',#1897,#384);
#243=LINE('',#1903,#385);
#244=LINE('',#1905,#386);
#245=LINE('',#1910,#387);
#246=LINE('',#1912,#388);
#247=LINE('',#1913,#389);
#248=LINE('',#1916,#390);
#249=LINE('',#1920,#391);
#250=LINE('',#1921,#392);
#251=LINE('',#1923,#393);
#252=LINE('',#1926,#394);
#253=LINE('',#1927,#395);
#254=LINE('',#1930,#396);
#255=LINE('',#1931,#397);
#256=LINE('',#1933,#398);
#257=LINE('',#1935,#399);
#258=LINE('',#1937,#400);
#259=LINE('',#1939,#401);
#260=LINE('',#1941,#402);
#261=LINE('',#1942,#403);
#262=LINE('',#1948,#404);
#263=LINE('',#1951,#405);
#264=LINE('',#1956,#406);
#265=LINE('',#1959,#407);
#266=LINE('',#1964,#408);
#267=LINE('',#1966,#409);
#268=LINE('',#1968,#410);
#269=LINE('',#1969,#411);
#270=LINE('',#1972,#412);
#271=LINE('',#1973,#413);
#272=LINE('',#1976,#414);
#273=LINE('',#1980,#415);
#274=LINE('',#1981,#416);
#275=LINE('',#1987,#417);
#276=LINE('',#1990,#418);
#277=LINE('',#1996,#419);
#278=LINE('',#1998,#420);
#279=LINE('',#2003,#421);
#280=LINE('',#2005,#422);
#281=LINE('',#2006,#423);
#282=LINE('',#2009,#424);
#283=LINE('',#2013,#425);
#284=LINE('',#2014,#426);
#285=LINE('',#2019,#427);
#286=LINE('',#2022,#428);
#287=LINE('',#2024,#429);
#288=LINE('',#2025,#430);
#289=LINE('',#2027,#431);
#290=LINE('',#2031,#432);
#291=LINE('',#2033,#433);
#292=LINE('',#2035,#434);
#293=LINE('',#2037,#435);
#294=LINE('',#2039,#436);
#295=LINE('',#2041,#437);
#296=LINE('',#2043,#438);
#297=LINE('',#2045,#439);
#298=LINE('',#2047,#440);
#299=LINE('',#2051,#441);
#300=LINE('',#2052,#442);
#301=LINE('',#2054,#443);
#302=LINE('',#2056,#444);
#303=LINE('',#2058,#445);
#304=LINE('',#2060,#446);
#305=LINE('',#2061,#447);
#306=LINE('',#2066,#448);
#307=LINE('',#2068,#449);
#308=LINE('',#2070,#450);
#309=LINE('',#2071,#451);
#310=LINE('',#2074,#452);
#311=LINE('',#2076,#453);
#312=LINE('',#2077,#454);
#313=LINE('',#2080,#455);
#314=LINE('',#2082,#456);
#315=LINE('',#2083,#457);
#316=LINE('',#2085,#458);
#317=LINE('',#2086,#459);
#318=LINE('',#2090,#460);
#319=LINE('',#2092,#461);
#320=LINE('',#2094,#462);
#321=LINE('',#2095,#463);
#322=LINE('',#2098,#464);
#323=LINE('',#2100,#465);
#324=LINE('',#2101,#466);
#325=LINE('',#2104,#467);
#326=LINE('',#2106,#468);
#327=LINE('',#2107,#469);
#328=LINE('',#2109,#470);
#329=LINE('',#2110,#471);
#330=LINE('',#2114,#472);
#331=LINE('',#2116,#473);
#332=LINE('',#2118,#474);
#333=LINE('',#2119,#475);
#334=LINE('',#2122,#476);
#335=LINE('',#2124,#477);
#336=LINE('',#2125,#478);
#337=LINE('',#2128,#479);
#338=LINE('',#2130,#480);
#339=LINE('',#2131,#481);
#340=LINE('',#2133,#482);
#341=LINE('',#2134,#483);
#342=LINE('',#2141,#484);
#343=LINE('',#2143,#485);
#344=LINE('',#2145,#486);
#345=LINE('',#2146,#487);
#346=LINE('',#2150,#488);
#347=LINE('',#2152,#489);
#348=LINE('',#2154,#490);
#349=LINE('',#2155,#491);
#350=LINE('',#2158,#492);
#351=LINE('',#2162,#493);
#352=LINE('',#2165,#494);
#353=LINE('',#2167,#495);
#354=LINE('',#2169,#496);
#355=LINE('',#2170,#497);
#356=LINE('',#2173,#498);
#357=LINE('',#2175,#499);
#358=LINE('',#2176,#500);
#359=LINE('',#2202,#501);
#360=LINE('',#2203,#502);
#361=LINE('',#2207,#503);
#362=LINE('',#2210,#504);
#363=LINE('',#2211,#505);
#364=LINE('',#2215,#506);
#365=LINE('',#2218,#507);
#366=LINE('',#2220,#508);
#367=LINE('',#2221,#509);
#368=LINE('',#2223,#510);
#369=LINE('',#2225,#511);
#370=VECTOR('',#1470,10.);
#371=VECTOR('',#1473,10.);
#372=VECTOR('',#1478,10.);
#373=VECTOR('',#1481,10.);
#374=VECTOR('',#1488,10.);
#375=VECTOR('',#1489,10.);
#376=VECTOR('',#1490,10.);
#377=VECTOR('',#1491,10.);
#378=VECTOR('',#1494,10.);
#379=VECTOR('',#1495,10.);
#380=VECTOR('',#1498,10.);
#381=VECTOR('',#1503,10.);
#382=VECTOR('',#1504,10.);
#383=VECTOR('',#1509,10.);
#384=VECTOR('',#1512,10.);
#385=VECTOR('',#1517,10.);
#386=VECTOR('',#1520,10.);
#387=VECTOR('',#1527,10.);
#388=VECTOR('',#1528,10.);
#389=VECTOR('',#1529,10.);
#390=VECTOR('',#1532,10.);
#391=VECTOR('',#1537,10.);
#392=VECTOR('',#1538,10.);
#393=VECTOR('',#1541,10.);
#394=VECTOR('',#1544,10.);
#395=VECTOR('',#1545,10.);
#396=VECTOR('',#1548,10.);
#397=VECTOR('',#1549,10.);
#398=VECTOR('',#1552,10.);
#399=VECTOR('',#1553,10.);
#400=VECTOR('',#1554,10.);
#401=VECTOR('',#1555,10.);
#402=VECTOR('',#1556,10.);
#403=VECTOR('',#1557,10.);
#404=VECTOR('',#1562,10.);
#405=VECTOR('',#1565,10.);
#406=VECTOR('',#1570,10.);
#407=VECTOR('',#1573,10.);
#408=VECTOR('',#1580,10.);
#409=VECTOR('',#1581,10.);
#410=VECTOR('',#1582,10.);
#411=VECTOR('',#1583,10.);
#412=VECTOR('',#1586,10.);
#413=VECTOR('',#1587,10.);
#414=VECTOR('',#1590,10.);
#415=VECTOR('',#1595,10.);
#416=VECTOR('',#1596,10.);
#417=VECTOR('',#1601,10.);
#418=VECTOR('',#1604,10.);
#419=VECTOR('',#1609,10.);
#420=VECTOR('',#1612,10.);
#421=VECTOR('',#1619,10.);
#422=VECTOR('',#1620,10.);
#423=VECTOR('',#1621,10.);
#424=VECTOR('',#1624,10.);
#425=VECTOR('',#1629,10.);
#426=VECTOR('',#1630,10.);
#427=VECTOR('',#1635,10.);
#428=VECTOR('',#1638,10.);
#429=VECTOR('',#1639,10.);
#430=VECTOR('',#1640,10.);
#431=VECTOR('',#1641,10.);
#432=VECTOR('',#1644,10.);
#433=VECTOR('',#1645,10.);
#434=VECTOR('',#1646,10.);
#435=VECTOR('',#1647,10.);
#436=VECTOR('',#1648,10.);
#437=VECTOR('',#1649,10.);
#438=VECTOR('',#1650,10.);
#439=VECTOR('',#1651,10.);
#440=VECTOR('',#1652,10.);
#441=VECTOR('',#1657,10.);
#442=VECTOR('',#1658,10.);
#443=VECTOR('',#1661,10.);
#444=VECTOR('',#1664,10.);
#445=VECTOR('',#1665,10.);
#446=VECTOR('',#1666,10.);
#447=VECTOR('',#1667,10.);
#448=VECTOR('',#1672,10.);
#449=VECTOR('',#1673,10.);
#450=VECTOR('',#1674,10.);
#451=VECTOR('',#1675,10.);
#452=VECTOR('',#1678,10.);
#453=VECTOR('',#1679,10.);
#454=VECTOR('',#1680,10.);
#455=VECTOR('',#1683,10.);
#456=VECTOR('',#1684,10.);
#457=VECTOR('',#1685,10.);
#458=VECTOR('',#1688,10.);
#459=VECTOR('',#1689,10.);
#460=VECTOR('',#1692,10.);
#461=VECTOR('',#1693,10.);
#462=VECTOR('',#1694,10.);
#463=VECTOR('',#1695,10.);
#464=VECTOR('',#1698,10.);
#465=VECTOR('',#1699,10.);
#466=VECTOR('',#1700,10.);
#467=VECTOR('',#1703,10.);
#468=VECTOR('',#1704,10.);
#469=VECTOR('',#1705,10.);
#470=VECTOR('',#1708,10.);
#471=VECTOR('',#1709,10.);
#472=VECTOR('',#1712,10.);
#473=VECTOR('',#1713,10.);
#474=VECTOR('',#1714,10.);
#475=VECTOR('',#1715,10.);
#476=VECTOR('',#1718,10.);
#477=VECTOR('',#1719,10.);
#478=VECTOR('',#1720,10.);
#479=VECTOR('',#1723,10.);
#480=VECTOR('',#1724,10.);
#481=VECTOR('',#1725,10.);
#482=VECTOR('',#1728,10.);
#483=VECTOR('',#1729,10.);
#484=VECTOR('',#1738,10.);
#485=VECTOR('',#1739,10.);
#486=VECTOR('',#1740,10.);
#487=VECTOR('',#1741,10.);
#488=VECTOR('',#1744,10.);
#489=VECTOR('',#1745,10.);
#490=VECTOR('',#1746,10.);
#491=VECTOR('',#1747,10.);
#492=VECTOR('',#1750,10.);
#493=VECTOR('',#1753,10.);
#494=VECTOR('',#1756,10.);
#495=VECTOR('',#1757,10.);
#496=VECTOR('',#1758,10.);
#497=VECTOR('',#1759,10.);
#498=VECTOR('',#1762,10.);
#499=VECTOR('',#1763,10.);
#500=VECTOR('',#1764,10.);
#501=VECTOR('',#1813,10.);
#502=VECTOR('',#1814,10.);
#503=VECTOR('',#1819,10.);
#504=VECTOR('',#1822,10.);
#505=VECTOR('',#1823,10.);
#506=VECTOR('',#1828,10.);
#507=VECTOR('',#1833,10.);
#508=VECTOR('',#1836,10.);
#509=VECTOR('',#1837,10.);
#510=VECTOR('',#1840,10.);
#511=VECTOR('',#1843,10.);
#512=CIRCLE('',#1343,1.);
#513=CIRCLE('',#1344,1.);
#514=CIRCLE('',#1346,0.999999999999996);
#515=CIRCLE('',#1347,1.);
#516=CIRCLE('',#1349,0.999999999999992);
#517=CIRCLE('',#1353,1.);
#518=CIRCLE('',#1356,1.);
#519=CIRCLE('',#1357,1.);
#520=CIRCLE('',#1359,1.);
#521=CIRCLE('',#1360,0.999999999999996);
#522=CIRCLE('',#1362,0.999999999999992);
#523=CIRCLE('',#1365,1.);
#524=CIRCLE('',#1372,1.);
#525=CIRCLE('',#1373,1.);
#526=CIRCLE('',#1375,0.999999999999996);
#527=CIRCLE('',#1376,1.);
#528=CIRCLE('',#1378,1.);
#529=CIRCLE('',#1382,1.);
#530=CIRCLE('',#1385,1.);
#531=CIRCLE('',#1386,1.);
#532=CIRCLE('',#1388,1.);
#533=CIRCLE('',#1389,0.999999999999996);
#534=CIRCLE('',#1391,1.);
#535=CIRCLE('',#1394,1.);
#536=CIRCLE('',#1397,0.5);
#537=CIRCLE('',#1398,0.5);
#538=CIRCLE('',#1399,0.5);
#539=CIRCLE('',#1400,0.5);
#540=CIRCLE('',#1423,0.5);
#541=CIRCLE('',#1424,0.5);
#542=CIRCLE('',#1427,0.500000000000007);
#543=CIRCLE('',#1428,0.5);
#544=CIRCLE('',#1430,0.500000000000007);
#545=CIRCLE('',#1431,0.5);
#546=CIRCLE('',#1433,0.499999999999998);
#547=CIRCLE('',#1434,0.5);
#548=CIRCLE('',#1436,0.500000000000007);
#549=CIRCLE('',#1437,0.5);
#550=CIRCLE('',#1439,0.499999999999998);
#551=CIRCLE('',#1441,0.500000000000007);
#552=CIRCLE('',#1443,0.500000000000007);
#553=CIRCLE('',#1445,0.500000000000007);
#554=CIRCLE('',#1451,0.5);
#555=CIRCLE('',#1454,0.5);
#556=VERTEX_POINT('',#1851);
#557=VERTEX_POINT('',#1852);
#558=VERTEX_POINT('',#1854);
#559=VERTEX_POINT('',#1856);
#560=VERTEX_POINT('',#1860);
#561=VERTEX_POINT('',#1862);
#562=VERTEX_POINT('',#1864);
#563=VERTEX_POINT('',#1870);
#564=VERTEX_POINT('',#1872);
#565=VERTEX_POINT('',#1874);
#566=VERTEX_POINT('',#1878);
#567=VERTEX_POINT('',#1882);
#568=VERTEX_POINT('',#1886);
#569=VERTEX_POINT('',#1890);
#570=VERTEX_POINT('',#1891);
#571=VERTEX_POINT('',#1893);
#572=VERTEX_POINT('',#1895);
#573=VERTEX_POINT('',#1899);
#574=VERTEX_POINT('',#1900);
#575=VERTEX_POINT('',#1902);
#576=VERTEX_POINT('',#1909);
#577=VERTEX_POINT('',#1911);
#578=VERTEX_POINT('',#1915);
#579=VERTEX_POINT('',#1919);
#580=VERTEX_POINT('',#1925);
#581=VERTEX_POINT('',#1929);
#582=VERTEX_POINT('',#1934);
#583=VERTEX_POINT('',#1936);
#584=VERTEX_POINT('',#1938);
#585=VERTEX_POINT('',#1940);
#586=VERTEX_POINT('',#1944);
#587=VERTEX_POINT('',#1945);
#588=VERTEX_POINT('',#1947);
#589=VERTEX_POINT('',#1949);
#590=VERTEX_POINT('',#1953);
#591=VERTEX_POINT('',#1955);
#592=VERTEX_POINT('',#1957);
#593=VERTEX_POINT('',#1963);
#594=VERTEX_POINT('',#1965);
#595=VERTEX_POINT('',#1967);
#596=VERTEX_POINT('',#1971);
#597=VERTEX_POINT('',#1975);
#598=VERTEX_POINT('',#1979);
#599=VERTEX_POINT('',#1983);
#600=VERTEX_POINT('',#1984);
#601=VERTEX_POINT('',#1986);
#602=VERTEX_POINT('',#1988);
#603=VERTEX_POINT('',#1992);
#604=VERTEX_POINT('',#1993);
#605=VERTEX_POINT('',#1995);
#606=VERTEX_POINT('',#2002);
#607=VERTEX_POINT('',#2004);
#608=VERTEX_POINT('',#2008);
#609=VERTEX_POINT('',#2012);
#610=VERTEX_POINT('',#2016);
#611=VERTEX_POINT('',#2018);
#612=VERTEX_POINT('',#2020);
#613=VERTEX_POINT('',#2023);
#614=VERTEX_POINT('',#2026);
#615=VERTEX_POINT('',#2028);
#616=VERTEX_POINT('',#2030);
#617=VERTEX_POINT('',#2032);
#618=VERTEX_POINT('',#2034);
#619=VERTEX_POINT('',#2036);
#620=VERTEX_POINT('',#2038);
#621=VERTEX_POINT('',#2040);
#622=VERTEX_POINT('',#2042);
#623=VERTEX_POINT('',#2044);
#624=VERTEX_POINT('',#2046);
#625=VERTEX_POINT('',#2050);
#626=VERTEX_POINT('',#2057);
#627=VERTEX_POINT('',#2059);
#628=VERTEX_POINT('',#2064);
#629=VERTEX_POINT('',#2065);
#630=VERTEX_POINT('',#2067);
#631=VERTEX_POINT('',#2069);
#632=VERTEX_POINT('',#2073);
#633=VERTEX_POINT('',#2075);
#634=VERTEX_POINT('',#2079);
#635=VERTEX_POINT('',#2081);
#636=VERTEX_POINT('',#2088);
#637=VERTEX_POINT('',#2089);
#638=VERTEX_POINT('',#2091);
#639=VERTEX_POINT('',#2093);
#640=VERTEX_POINT('',#2097);
#641=VERTEX_POINT('',#2099);
#642=VERTEX_POINT('',#2103);
#643=VERTEX_POINT('',#2105);
#644=VERTEX_POINT('',#2112);
#645=VERTEX_POINT('',#2113);
#646=VERTEX_POINT('',#2115);
#647=VERTEX_POINT('',#2117);
#648=VERTEX_POINT('',#2121);
#649=VERTEX_POINT('',#2123);
#650=VERTEX_POINT('',#2127);
#651=VERTEX_POINT('',#2129);
#652=VERTEX_POINT('',#2139);
#653=VERTEX_POINT('',#2140);
#654=VERTEX_POINT('',#2142);
#655=VERTEX_POINT('',#2144);
#656=VERTEX_POINT('',#2148);
#657=VERTEX_POINT('',#2149);
#658=VERTEX_POINT('',#2151);
#659=VERTEX_POINT('',#2153);
#660=VERTEX_POINT('',#2157);
#661=VERTEX_POINT('',#2159);
#662=VERTEX_POINT('',#2161);
#663=VERTEX_POINT('',#2163);
#664=VERTEX_POINT('',#2166);
#665=VERTEX_POINT('',#2168);
#666=VERTEX_POINT('',#2172);
#667=VERTEX_POINT('',#2174);
#668=VERTEX_POINT('',#2201);
#669=VERTEX_POINT('',#2205);
#670=VERTEX_POINT('',#2209);
#671=VERTEX_POINT('',#2213);
#672=EDGE_CURVE('',#556,#557,#512,.T.);
#673=EDGE_CURVE('',#557,#558,#228,.T.);
#674=EDGE_CURVE('',#558,#559,#513,.T.);
#675=EDGE_CURVE('',#559,#556,#229,.T.);
#676=EDGE_CURVE('',#560,#558,#514,.T.);
#677=EDGE_CURVE('',#558,#561,#230,.T.);
#678=EDGE_CURVE('',#561,#562,#515,.F.);
#679=EDGE_CURVE('',#562,#560,#231,.T.);
#680=EDGE_CURVE('',#560,#559,#516,.T.);
#681=EDGE_CURVE('',#563,#556,#232,.T.);
#682=EDGE_CURVE('',#564,#563,#233,.T.);
#683=EDGE_CURVE('',#565,#564,#234,.T.);
#684=EDGE_CURVE('',#565,#557,#235,.T.);
#685=EDGE_CURVE('',#566,#559,#236,.T.);
#686=EDGE_CURVE('',#566,#563,#237,.T.);
#687=EDGE_CURVE('',#560,#567,#238,.T.);
#688=EDGE_CURVE('',#567,#566,#517,.T.);
#689=EDGE_CURVE('',#568,#562,#239,.T.);
#690=EDGE_CURVE('',#568,#567,#240,.T.);
#691=EDGE_CURVE('',#569,#570,#518,.T.);
#692=EDGE_CURVE('',#570,#571,#241,.T.);
#693=EDGE_CURVE('',#571,#572,#519,.F.);
#694=EDGE_CURVE('',#572,#569,#242,.T.);
#695=EDGE_CURVE('',#573,#574,#520,.T.);
#696=EDGE_CURVE('',#574,#575,#243,.T.);
#697=EDGE_CURVE('',#575,#569,#521,.T.);
#698=EDGE_CURVE('',#569,#573,#244,.T.);
#699=EDGE_CURVE('',#575,#570,#522,.T.);
#700=EDGE_CURVE('',#576,#570,#245,.T.);
#701=EDGE_CURVE('',#577,#576,#246,.T.);
#702=EDGE_CURVE('',#571,#577,#247,.T.);
#703=EDGE_CURVE('',#575,#578,#248,.T.);
#704=EDGE_CURVE('',#578,#576,#523,.T.);
#705=EDGE_CURVE('',#574,#579,#249,.T.);
#706=EDGE_CURVE('',#579,#578,#250,.T.);
#707=EDGE_CURVE('',#561,#565,#251,.T.);
#708=EDGE_CURVE('',#580,#572,#252,.T.);
#709=EDGE_CURVE('',#580,#573,#253,.T.);
#710=EDGE_CURVE('',#581,#580,#254,.T.);
#711=EDGE_CURVE('',#581,#579,#255,.T.);
#712=EDGE_CURVE('',#581,#564,#256,.T.);
#713=EDGE_CURVE('',#582,#577,#257,.T.);
#714=EDGE_CURVE('',#583,#582,#258,.T.);
#715=EDGE_CURVE('',#584,#583,#259,.T.);
#716=EDGE_CURVE('',#585,#584,#260,.T.);
#717=EDGE_CURVE('',#568,#585,#261,.T.);
#718=EDGE_CURVE('',#586,#587,#524,.T.);
#719=EDGE_CURVE('',#587,#588,#262,.T.);
#720=EDGE_CURVE('',#588,#589,#525,.T.);
#721=EDGE_CURVE('',#589,#586,#263,.T.);
#722=EDGE_CURVE('',#590,#588,#526,.T.);
#723=EDGE_CURVE('',#588,#591,#264,.T.);
#724=EDGE_CURVE('',#591,#592,#527,.F.);
#725=EDGE_CURVE('',#592,#590,#265,.T.);
#726=EDGE_CURVE('',#590,#589,#528,.T.);
#727=EDGE_CURVE('',#593,#586,#266,.T.);
#728=EDGE_CURVE('',#594,#593,#267,.T.);
#729=EDGE_CURVE('',#595,#594,#268,.T.);
#730=EDGE_CURVE('',#595,#587,#269,.T.);
#731=EDGE_CURVE('',#596,#589,#270,.T.);
#732=EDGE_CURVE('',#596,#593,#271,.T.);
#733=EDGE_CURVE('',#590,#597,#272,.T.);
#734=EDGE_CURVE('',#597,#596,#529,.T.);
#735=EDGE_CURVE('',#598,#592,#273,.T.);
#736=EDGE_CURVE('',#598,#597,#274,.T.);
#737=EDGE_CURVE('',#599,#600,#530,.T.);
#738=EDGE_CURVE('',#600,#601,#275,.T.);
#739=EDGE_CURVE('',#601,#602,#531,.F.);
#740=EDGE_CURVE('',#602,#599,#276,.T.);
#741=EDGE_CURVE('',#603,#604,#532,.T.);
#742=EDGE_CURVE('',#604,#605,#277,.T.);
#743=EDGE_CURVE('',#605,#599,#533,.T.);
#744=EDGE_CURVE('',#599,#603,#278,.T.);
#745=EDGE_CURVE('',#605,#600,#534,.T.);
#746=EDGE_CURVE('',#606,#600,#279,.T.);
#747=EDGE_CURVE('',#607,#606,#280,.T.);
#748=EDGE_CURVE('',#601,#607,#281,.T.);
#749=EDGE_CURVE('',#605,#608,#282,.T.);
#750=EDGE_CURVE('',#608,#606,#535,.T.);
#751=EDGE_CURVE('',#604,#609,#283,.T.);
#752=EDGE_CURVE('',#609,#608,#284,.T.);
#753=EDGE_CURVE('',#585,#610,#536,.T.);
#754=EDGE_CURVE('',#610,#611,#285,.T.);
#755=EDGE_CURVE('',#611,#612,#537,.T.);
#756=EDGE_CURVE('',#612,#607,#286,.T.);
#757=EDGE_CURVE('',#613,#609,#287,.T.);
#758=EDGE_CURVE('',#613,#594,#288,.T.);
#759=EDGE_CURVE('',#598,#614,#289,.T.);
#760=EDGE_CURVE('',#614,#615,#538,.T.);
#761=EDGE_CURVE('',#615,#616,#290,.T.);
#762=EDGE_CURVE('',#616,#617,#291,.T.);
#763=EDGE_CURVE('',#617,#618,#292,.T.);
#764=EDGE_CURVE('',#618,#619,#293,.T.);
#765=EDGE_CURVE('',#619,#620,#294,.T.);
#766=EDGE_CURVE('',#620,#621,#295,.T.);
#767=EDGE_CURVE('',#621,#622,#296,.T.);
#768=EDGE_CURVE('',#622,#623,#297,.T.);
#769=EDGE_CURVE('',#623,#624,#298,.T.);
#770=EDGE_CURVE('',#624,#582,#539,.T.);
#771=EDGE_CURVE('',#625,#602,#299,.T.);
#772=EDGE_CURVE('',#625,#603,#300,.T.);
#773=EDGE_CURVE('',#591,#595,#301,.T.);
#774=EDGE_CURVE('',#613,#625,#302,.T.);
#775=EDGE_CURVE('',#626,#612,#303,.T.);
#776=EDGE_CURVE('',#627,#626,#304,.T.);
#777=EDGE_CURVE('',#614,#627,#305,.T.);
#778=EDGE_CURVE('',#628,#629,#306,.T.);
#779=EDGE_CURVE('',#628,#630,#307,.T.);
#780=EDGE_CURVE('',#630,#631,#308,.T.);
#781=EDGE_CURVE('',#629,#631,#309,.T.);
#782=EDGE_CURVE('',#629,#632,#310,.T.);
#783=EDGE_CURVE('',#631,#633,#311,.T.);
#784=EDGE_CURVE('',#632,#633,#312,.T.);
#785=EDGE_CURVE('',#632,#634,#313,.T.);
#786=EDGE_CURVE('',#633,#635,#314,.T.);
#787=EDGE_CURVE('',#634,#635,#315,.T.);
#788=EDGE_CURVE('',#634,#628,#316,.T.);
#789=EDGE_CURVE('',#635,#630,#317,.T.);
#790=EDGE_CURVE('',#636,#637,#318,.T.);
#791=EDGE_CURVE('',#636,#638,#319,.T.);
#792=EDGE_CURVE('',#638,#639,#320,.T.);
#793=EDGE_CURVE('',#637,#639,#321,.T.);
#794=EDGE_CURVE('',#637,#640,#322,.T.);
#795=EDGE_CURVE('',#639,#641,#323,.T.);
#796=EDGE_CURVE('',#640,#641,#324,.T.);
#797=EDGE_CURVE('',#640,#642,#325,.T.);
#798=EDGE_CURVE('',#641,#643,#326,.T.);
#799=EDGE_CURVE('',#642,#643,#327,.T.);
#800=EDGE_CURVE('',#642,#636,#328,.T.);
#801=EDGE_CURVE('',#643,#638,#329,.T.);
#802=EDGE_CURVE('',#644,#645,#330,.T.);
#803=EDGE_CURVE('',#644,#646,#331,.T.);
#804=EDGE_CURVE('',#646,#647,#332,.T.);
#805=EDGE_CURVE('',#645,#647,#333,.T.);
#806=EDGE_CURVE('',#645,#648,#334,.T.);
#807=EDGE_CURVE('',#647,#649,#335,.T.);
#808=EDGE_CURVE('',#648,#649,#336,.T.);
#809=EDGE_CURVE('',#648,#650,#337,.T.);
#810=EDGE_CURVE('',#649,#651,#338,.T.);
#811=EDGE_CURVE('',#650,#651,#339,.T.);
#812=EDGE_CURVE('',#650,#644,#340,.T.);
#813=EDGE_CURVE('',#651,#646,#341,.T.);
#814=EDGE_CURVE('',#652,#653,#342,.T.);
#815=EDGE_CURVE('',#653,#654,#343,.T.);
#816=EDGE_CURVE('',#654,#655,#344,.T.);
#817=EDGE_CURVE('',#655,#652,#345,.T.);
#818=EDGE_CURVE('',#656,#657,#346,.T.);
#819=EDGE_CURVE('',#658,#656,#347,.T.);
#820=EDGE_CURVE('',#659,#658,#348,.T.);
#821=EDGE_CURVE('',#657,#659,#349,.T.);
#822=EDGE_CURVE('',#623,#660,#350,.T.);
#823=EDGE_CURVE('',#661,#660,#540,.T.);
#824=EDGE_CURVE('',#662,#661,#351,.T.);
#825=EDGE_CURVE('',#663,#662,#541,.T.);
#826=EDGE_CURVE('',#663,#616,#352,.T.);
#827=EDGE_CURVE('',#664,#615,#353,.T.);
#828=EDGE_CURVE('',#665,#664,#354,.T.);
#829=EDGE_CURVE('',#624,#665,#355,.T.);
#830=EDGE_CURVE('',#666,#610,#356,.T.);
#831=EDGE_CURVE('',#667,#666,#357,.T.);
#832=EDGE_CURVE('',#611,#667,#358,.T.);
#833=EDGE_CURVE('',#666,#658,#542,.F.);
#834=EDGE_CURVE('',#656,#667,#543,.F.);
#835=EDGE_CURVE('',#583,#659,#544,.F.);
#836=EDGE_CURVE('',#658,#584,#545,.F.);
#837=EDGE_CURVE('',#664,#657,#546,.F.);
#838=EDGE_CURVE('',#659,#665,#547,.F.);
#839=EDGE_CURVE('',#626,#656,#548,.F.);
#840=EDGE_CURVE('',#657,#627,#549,.F.);
#841=EDGE_CURVE('',#665,#583,#550,.F.);
#842=EDGE_CURVE('',#667,#626,#551,.F.);
#843=EDGE_CURVE('',#627,#664,#552,.F.);
#844=EDGE_CURVE('',#584,#666,#553,.F.);
#845=EDGE_CURVE('',#668,#622,#359,.T.);
#846=EDGE_CURVE('',#660,#668,#360,.T.);
#847=EDGE_CURVE('',#668,#669,#554,.T.);
#848=EDGE_CURVE('',#669,#661,#361,.T.);
#849=EDGE_CURVE('',#662,#670,#362,.T.);
#850=EDGE_CURVE('',#669,#670,#363,.T.);
#851=EDGE_CURVE('',#670,#671,#555,.T.);
#852=EDGE_CURVE('',#671,#663,#364,.T.);
#853=EDGE_CURVE('',#617,#671,#365,.T.);
#854=EDGE_CURVE('',#653,#621,#366,.T.);
#855=EDGE_CURVE('',#652,#618,#367,.T.);
#856=EDGE_CURVE('',#655,#619,#368,.T.);
#857=EDGE_CURVE('',#654,#620,#369,.T.);
#858=ORIENTED_EDGE('',*,*,#672,.T.);
#859=ORIENTED_EDGE('',*,*,#673,.T.);
#860=ORIENTED_EDGE('',*,*,#674,.T.);
#861=ORIENTED_EDGE('',*,*,#675,.T.);
#862=ORIENTED_EDGE('',*,*,#676,.T.);
#863=ORIENTED_EDGE('',*,*,#677,.T.);
#864=ORIENTED_EDGE('',*,*,#678,.T.);
#865=ORIENTED_EDGE('',*,*,#679,.T.);
#866=ORIENTED_EDGE('',*,*,#676,.F.);
#867=ORIENTED_EDGE('',*,*,#680,.T.);
#868=ORIENTED_EDGE('',*,*,#674,.F.);
#869=ORIENTED_EDGE('',*,*,#672,.F.);
#870=ORIENTED_EDGE('',*,*,#681,.F.);
#871=ORIENTED_EDGE('',*,*,#682,.F.);
#872=ORIENTED_EDGE('',*,*,#683,.F.);
#873=ORIENTED_EDGE('',*,*,#684,.T.);
#874=ORIENTED_EDGE('',*,*,#675,.F.);
#875=ORIENTED_EDGE('',*,*,#685,.F.);
#876=ORIENTED_EDGE('',*,*,#686,.T.);
#877=ORIENTED_EDGE('',*,*,#681,.T.);
#878=ORIENTED_EDGE('',*,*,#680,.F.);
#879=ORIENTED_EDGE('',*,*,#687,.T.);
#880=ORIENTED_EDGE('',*,*,#688,.T.);
#881=ORIENTED_EDGE('',*,*,#685,.T.);
#882=ORIENTED_EDGE('',*,*,#679,.F.);
#883=ORIENTED_EDGE('',*,*,#689,.F.);
#884=ORIENTED_EDGE('',*,*,#690,.T.);
#885=ORIENTED_EDGE('',*,*,#687,.F.);
#886=ORIENTED_EDGE('',*,*,#691,.T.);
#887=ORIENTED_EDGE('',*,*,#692,.T.);
#888=ORIENTED_EDGE('',*,*,#693,.T.);
#889=ORIENTED_EDGE('',*,*,#694,.T.);
#890=ORIENTED_EDGE('',*,*,#695,.T.);
#891=ORIENTED_EDGE('',*,*,#696,.T.);
#892=ORIENTED_EDGE('',*,*,#697,.T.);
#893=ORIENTED_EDGE('',*,*,#698,.T.);
#894=ORIENTED_EDGE('',*,*,#697,.F.);
#895=ORIENTED_EDGE('',*,*,#699,.T.);
#896=ORIENTED_EDGE('',*,*,#691,.F.);
#897=ORIENTED_EDGE('',*,*,#692,.F.);
#898=ORIENTED_EDGE('',*,*,#700,.F.);
#899=ORIENTED_EDGE('',*,*,#701,.F.);
#900=ORIENTED_EDGE('',*,*,#702,.F.);
#901=ORIENTED_EDGE('',*,*,#699,.F.);
#902=ORIENTED_EDGE('',*,*,#703,.T.);
#903=ORIENTED_EDGE('',*,*,#704,.T.);
#904=ORIENTED_EDGE('',*,*,#700,.T.);
#905=ORIENTED_EDGE('',*,*,#696,.F.);
#906=ORIENTED_EDGE('',*,*,#705,.T.);
#907=ORIENTED_EDGE('',*,*,#706,.T.);
#908=ORIENTED_EDGE('',*,*,#703,.F.);
#909=ORIENTED_EDGE('',*,*,#673,.F.);
#910=ORIENTED_EDGE('',*,*,#684,.F.);
#911=ORIENTED_EDGE('',*,*,#707,.F.);
#912=ORIENTED_EDGE('',*,*,#677,.F.);
#913=ORIENTED_EDGE('',*,*,#694,.F.);
#914=ORIENTED_EDGE('',*,*,#708,.F.);
#915=ORIENTED_EDGE('',*,*,#709,.T.);
#916=ORIENTED_EDGE('',*,*,#698,.F.);
#917=ORIENTED_EDGE('',*,*,#695,.F.);
#918=ORIENTED_EDGE('',*,*,#709,.F.);
#919=ORIENTED_EDGE('',*,*,#710,.F.);
#920=ORIENTED_EDGE('',*,*,#711,.T.);
#921=ORIENTED_EDGE('',*,*,#705,.F.);
#922=ORIENTED_EDGE('',*,*,#683,.T.);
#923=ORIENTED_EDGE('',*,*,#712,.F.);
#924=ORIENTED_EDGE('',*,*,#710,.T.);
#925=ORIENTED_EDGE('',*,*,#708,.T.);
#926=ORIENTED_EDGE('',*,*,#693,.F.);
#927=ORIENTED_EDGE('',*,*,#702,.T.);
#928=ORIENTED_EDGE('',*,*,#713,.F.);
#929=ORIENTED_EDGE('',*,*,#714,.F.);
#930=ORIENTED_EDGE('',*,*,#715,.F.);
#931=ORIENTED_EDGE('',*,*,#716,.F.);
#932=ORIENTED_EDGE('',*,*,#717,.F.);
#933=ORIENTED_EDGE('',*,*,#689,.T.);
#934=ORIENTED_EDGE('',*,*,#678,.F.);
#935=ORIENTED_EDGE('',*,*,#707,.T.);
#936=ORIENTED_EDGE('',*,*,#718,.T.);
#937=ORIENTED_EDGE('',*,*,#719,.T.);
#938=ORIENTED_EDGE('',*,*,#720,.T.);
#939=ORIENTED_EDGE('',*,*,#721,.T.);
#940=ORIENTED_EDGE('',*,*,#722,.T.);
#941=ORIENTED_EDGE('',*,*,#723,.T.);
#942=ORIENTED_EDGE('',*,*,#724,.T.);
#943=ORIENTED_EDGE('',*,*,#725,.T.);
#944=ORIENTED_EDGE('',*,*,#722,.F.);
#945=ORIENTED_EDGE('',*,*,#726,.T.);
#946=ORIENTED_EDGE('',*,*,#720,.F.);
#947=ORIENTED_EDGE('',*,*,#718,.F.);
#948=ORIENTED_EDGE('',*,*,#727,.F.);
#949=ORIENTED_EDGE('',*,*,#728,.F.);
#950=ORIENTED_EDGE('',*,*,#729,.F.);
#951=ORIENTED_EDGE('',*,*,#730,.T.);
#952=ORIENTED_EDGE('',*,*,#721,.F.);
#953=ORIENTED_EDGE('',*,*,#731,.F.);
#954=ORIENTED_EDGE('',*,*,#732,.T.);
#955=ORIENTED_EDGE('',*,*,#727,.T.);
#956=ORIENTED_EDGE('',*,*,#726,.F.);
#957=ORIENTED_EDGE('',*,*,#733,.T.);
#958=ORIENTED_EDGE('',*,*,#734,.T.);
#959=ORIENTED_EDGE('',*,*,#731,.T.);
#960=ORIENTED_EDGE('',*,*,#725,.F.);
#961=ORIENTED_EDGE('',*,*,#735,.F.);
#962=ORIENTED_EDGE('',*,*,#736,.T.);
#963=ORIENTED_EDGE('',*,*,#733,.F.);
#964=ORIENTED_EDGE('',*,*,#737,.T.);
#965=ORIENTED_EDGE('',*,*,#738,.T.);
#966=ORIENTED_EDGE('',*,*,#739,.T.);
#967=ORIENTED_EDGE('',*,*,#740,.T.);
#968=ORIENTED_EDGE('',*,*,#741,.T.);
#969=ORIENTED_EDGE('',*,*,#742,.T.);
#970=ORIENTED_EDGE('',*,*,#743,.T.);
#971=ORIENTED_EDGE('',*,*,#744,.T.);
#972=ORIENTED_EDGE('',*,*,#743,.F.);
#973=ORIENTED_EDGE('',*,*,#745,.T.);
#974=ORIENTED_EDGE('',*,*,#737,.F.);
#975=ORIENTED_EDGE('',*,*,#738,.F.);
#976=ORIENTED_EDGE('',*,*,#746,.F.);
#977=ORIENTED_EDGE('',*,*,#747,.F.);
#978=ORIENTED_EDGE('',*,*,#748,.F.);
#979=ORIENTED_EDGE('',*,*,#745,.F.);
#980=ORIENTED_EDGE('',*,*,#749,.T.);
#981=ORIENTED_EDGE('',*,*,#750,.T.);
#982=ORIENTED_EDGE('',*,*,#746,.T.);
#983=ORIENTED_EDGE('',*,*,#742,.F.);
#984=ORIENTED_EDGE('',*,*,#751,.T.);
#985=ORIENTED_EDGE('',*,*,#752,.T.);
#986=ORIENTED_EDGE('',*,*,#749,.F.);
#987=ORIENTED_EDGE('',*,*,#688,.F.);
#988=ORIENTED_EDGE('',*,*,#690,.F.);
#989=ORIENTED_EDGE('',*,*,#717,.T.);
#990=ORIENTED_EDGE('',*,*,#753,.T.);
#991=ORIENTED_EDGE('',*,*,#754,.T.);
#992=ORIENTED_EDGE('',*,*,#755,.T.);
#993=ORIENTED_EDGE('',*,*,#756,.T.);
#994=ORIENTED_EDGE('',*,*,#747,.T.);
#995=ORIENTED_EDGE('',*,*,#750,.F.);
#996=ORIENTED_EDGE('',*,*,#752,.F.);
#997=ORIENTED_EDGE('',*,*,#757,.F.);
#998=ORIENTED_EDGE('',*,*,#758,.T.);
#999=ORIENTED_EDGE('',*,*,#728,.T.);
#1000=ORIENTED_EDGE('',*,*,#732,.F.);
#1001=ORIENTED_EDGE('',*,*,#734,.F.);
#1002=ORIENTED_EDGE('',*,*,#736,.F.);
#1003=ORIENTED_EDGE('',*,*,#759,.T.);
#1004=ORIENTED_EDGE('',*,*,#760,.T.);
#1005=ORIENTED_EDGE('',*,*,#761,.T.);
#1006=ORIENTED_EDGE('',*,*,#762,.T.);
#1007=ORIENTED_EDGE('',*,*,#763,.T.);
#1008=ORIENTED_EDGE('',*,*,#764,.T.);
#1009=ORIENTED_EDGE('',*,*,#765,.T.);
#1010=ORIENTED_EDGE('',*,*,#766,.T.);
#1011=ORIENTED_EDGE('',*,*,#767,.T.);
#1012=ORIENTED_EDGE('',*,*,#768,.T.);
#1013=ORIENTED_EDGE('',*,*,#769,.T.);
#1014=ORIENTED_EDGE('',*,*,#770,.T.);
#1015=ORIENTED_EDGE('',*,*,#713,.T.);
#1016=ORIENTED_EDGE('',*,*,#701,.T.);
#1017=ORIENTED_EDGE('',*,*,#704,.F.);
#1018=ORIENTED_EDGE('',*,*,#706,.F.);
#1019=ORIENTED_EDGE('',*,*,#711,.F.);
#1020=ORIENTED_EDGE('',*,*,#712,.T.);
#1021=ORIENTED_EDGE('',*,*,#682,.T.);
#1022=ORIENTED_EDGE('',*,*,#686,.F.);
#1023=ORIENTED_EDGE('',*,*,#740,.F.);
#1024=ORIENTED_EDGE('',*,*,#771,.F.);
#1025=ORIENTED_EDGE('',*,*,#772,.T.);
#1026=ORIENTED_EDGE('',*,*,#744,.F.);
#1027=ORIENTED_EDGE('',*,*,#719,.F.);
#1028=ORIENTED_EDGE('',*,*,#730,.F.);
#1029=ORIENTED_EDGE('',*,*,#773,.F.);
#1030=ORIENTED_EDGE('',*,*,#723,.F.);
#1031=ORIENTED_EDGE('',*,*,#735,.T.);
#1032=ORIENTED_EDGE('',*,*,#724,.F.);
#1033=ORIENTED_EDGE('',*,*,#773,.T.);
#1034=ORIENTED_EDGE('',*,*,#729,.T.);
#1035=ORIENTED_EDGE('',*,*,#758,.F.);
#1036=ORIENTED_EDGE('',*,*,#774,.T.);
#1037=ORIENTED_EDGE('',*,*,#771,.T.);
#1038=ORIENTED_EDGE('',*,*,#739,.F.);
#1039=ORIENTED_EDGE('',*,*,#748,.T.);
#1040=ORIENTED_EDGE('',*,*,#756,.F.);
#1041=ORIENTED_EDGE('',*,*,#775,.F.);
#1042=ORIENTED_EDGE('',*,*,#776,.F.);
#1043=ORIENTED_EDGE('',*,*,#777,.F.);
#1044=ORIENTED_EDGE('',*,*,#759,.F.);
#1045=ORIENTED_EDGE('',*,*,#741,.F.);
#1046=ORIENTED_EDGE('',*,*,#772,.F.);
#1047=ORIENTED_EDGE('',*,*,#774,.F.);
#1048=ORIENTED_EDGE('',*,*,#757,.T.);
#1049=ORIENTED_EDGE('',*,*,#751,.F.);
#1050=ORIENTED_EDGE('',*,*,#778,.F.);
#1051=ORIENTED_EDGE('',*,*,#779,.T.);
#1052=ORIENTED_EDGE('',*,*,#780,.T.);
#1053=ORIENTED_EDGE('',*,*,#781,.F.);
#1054=ORIENTED_EDGE('',*,*,#782,.F.);
#1055=ORIENTED_EDGE('',*,*,#781,.T.);
#1056=ORIENTED_EDGE('',*,*,#783,.T.);
#1057=ORIENTED_EDGE('',*,*,#784,.F.);
#1058=ORIENTED_EDGE('',*,*,#785,.F.);
#1059=ORIENTED_EDGE('',*,*,#784,.T.);
#1060=ORIENTED_EDGE('',*,*,#786,.T.);
#1061=ORIENTED_EDGE('',*,*,#787,.F.);
#1062=ORIENTED_EDGE('',*,*,#788,.F.);
#1063=ORIENTED_EDGE('',*,*,#787,.T.);
#1064=ORIENTED_EDGE('',*,*,#789,.T.);
#1065=ORIENTED_EDGE('',*,*,#779,.F.);
#1066=ORIENTED_EDGE('',*,*,#790,.F.);
#1067=ORIENTED_EDGE('',*,*,#791,.T.);
#1068=ORIENTED_EDGE('',*,*,#792,.T.);
#1069=ORIENTED_EDGE('',*,*,#793,.F.);
#1070=ORIENTED_EDGE('',*,*,#794,.F.);
#1071=ORIENTED_EDGE('',*,*,#793,.T.);
#1072=ORIENTED_EDGE('',*,*,#795,.T.);
#1073=ORIENTED_EDGE('',*,*,#796,.F.);
#1074=ORIENTED_EDGE('',*,*,#797,.F.);
#1075=ORIENTED_EDGE('',*,*,#796,.T.);
#1076=ORIENTED_EDGE('',*,*,#798,.T.);
#1077=ORIENTED_EDGE('',*,*,#799,.F.);
#1078=ORIENTED_EDGE('',*,*,#800,.F.);
#1079=ORIENTED_EDGE('',*,*,#799,.T.);
#1080=ORIENTED_EDGE('',*,*,#801,.T.);
#1081=ORIENTED_EDGE('',*,*,#791,.F.);
#1082=ORIENTED_EDGE('',*,*,#802,.F.);
#1083=ORIENTED_EDGE('',*,*,#803,.T.);
#1084=ORIENTED_EDGE('',*,*,#804,.T.);
#1085=ORIENTED_EDGE('',*,*,#805,.F.);
#1086=ORIENTED_EDGE('',*,*,#806,.F.);
#1087=ORIENTED_EDGE('',*,*,#805,.T.);
#1088=ORIENTED_EDGE('',*,*,#807,.T.);
#1089=ORIENTED_EDGE('',*,*,#808,.F.);
#1090=ORIENTED_EDGE('',*,*,#809,.F.);
#1091=ORIENTED_EDGE('',*,*,#808,.T.);
#1092=ORIENTED_EDGE('',*,*,#810,.T.);
#1093=ORIENTED_EDGE('',*,*,#811,.F.);
#1094=ORIENTED_EDGE('',*,*,#812,.F.);
#1095=ORIENTED_EDGE('',*,*,#811,.T.);
#1096=ORIENTED_EDGE('',*,*,#813,.T.);
#1097=ORIENTED_EDGE('',*,*,#803,.F.);
#1098=ORIENTED_EDGE('',*,*,#804,.F.);
#1099=ORIENTED_EDGE('',*,*,#813,.F.);
#1100=ORIENTED_EDGE('',*,*,#810,.F.);
#1101=ORIENTED_EDGE('',*,*,#807,.F.);
#1102=ORIENTED_EDGE('',*,*,#792,.F.);
#1103=ORIENTED_EDGE('',*,*,#801,.F.);
#1104=ORIENTED_EDGE('',*,*,#798,.F.);
#1105=ORIENTED_EDGE('',*,*,#795,.F.);
#1106=ORIENTED_EDGE('',*,*,#780,.F.);
#1107=ORIENTED_EDGE('',*,*,#789,.F.);
#1108=ORIENTED_EDGE('',*,*,#786,.F.);
#1109=ORIENTED_EDGE('',*,*,#783,.F.);
#1110=ORIENTED_EDGE('',*,*,#814,.T.);
#1111=ORIENTED_EDGE('',*,*,#815,.T.);
#1112=ORIENTED_EDGE('',*,*,#816,.T.);
#1113=ORIENTED_EDGE('',*,*,#817,.T.);
#1114=ORIENTED_EDGE('',*,*,#788,.T.);
#1115=ORIENTED_EDGE('',*,*,#778,.T.);
#1116=ORIENTED_EDGE('',*,*,#782,.T.);
#1117=ORIENTED_EDGE('',*,*,#785,.T.);
#1118=ORIENTED_EDGE('',*,*,#800,.T.);
#1119=ORIENTED_EDGE('',*,*,#790,.T.);
#1120=ORIENTED_EDGE('',*,*,#794,.T.);
#1121=ORIENTED_EDGE('',*,*,#797,.T.);
#1122=ORIENTED_EDGE('',*,*,#812,.T.);
#1123=ORIENTED_EDGE('',*,*,#802,.T.);
#1124=ORIENTED_EDGE('',*,*,#806,.T.);
#1125=ORIENTED_EDGE('',*,*,#809,.T.);
#1126=ORIENTED_EDGE('',*,*,#818,.F.);
#1127=ORIENTED_EDGE('',*,*,#819,.F.);
#1128=ORIENTED_EDGE('',*,*,#820,.F.);
#1129=ORIENTED_EDGE('',*,*,#821,.F.);
#1130=ORIENTED_EDGE('',*,*,#769,.F.);
#1131=ORIENTED_EDGE('',*,*,#822,.T.);
#1132=ORIENTED_EDGE('',*,*,#823,.F.);
#1133=ORIENTED_EDGE('',*,*,#824,.F.);
#1134=ORIENTED_EDGE('',*,*,#825,.F.);
#1135=ORIENTED_EDGE('',*,*,#826,.T.);
#1136=ORIENTED_EDGE('',*,*,#761,.F.);
#1137=ORIENTED_EDGE('',*,*,#827,.F.);
#1138=ORIENTED_EDGE('',*,*,#828,.F.);
#1139=ORIENTED_EDGE('',*,*,#829,.F.);
#1140=ORIENTED_EDGE('',*,*,#754,.F.);
#1141=ORIENTED_EDGE('',*,*,#830,.F.);
#1142=ORIENTED_EDGE('',*,*,#831,.F.);
#1143=ORIENTED_EDGE('',*,*,#832,.F.);
#1144=ORIENTED_EDGE('',*,*,#833,.T.);
#1145=ORIENTED_EDGE('',*,*,#819,.T.);
#1146=ORIENTED_EDGE('',*,*,#834,.T.);
#1147=ORIENTED_EDGE('',*,*,#831,.T.);
#1148=ORIENTED_EDGE('',*,*,#835,.T.);
#1149=ORIENTED_EDGE('',*,*,#820,.T.);
#1150=ORIENTED_EDGE('',*,*,#836,.T.);
#1151=ORIENTED_EDGE('',*,*,#715,.T.);
#1152=ORIENTED_EDGE('',*,*,#837,.T.);
#1153=ORIENTED_EDGE('',*,*,#821,.T.);
#1154=ORIENTED_EDGE('',*,*,#838,.T.);
#1155=ORIENTED_EDGE('',*,*,#828,.T.);
#1156=ORIENTED_EDGE('',*,*,#839,.T.);
#1157=ORIENTED_EDGE('',*,*,#818,.T.);
#1158=ORIENTED_EDGE('',*,*,#840,.T.);
#1159=ORIENTED_EDGE('',*,*,#776,.T.);
#1160=ORIENTED_EDGE('',*,*,#770,.F.);
#1161=ORIENTED_EDGE('',*,*,#829,.T.);
#1162=ORIENTED_EDGE('',*,*,#841,.T.);
#1163=ORIENTED_EDGE('',*,*,#714,.T.);
#1164=ORIENTED_EDGE('',*,*,#755,.F.);
#1165=ORIENTED_EDGE('',*,*,#832,.T.);
#1166=ORIENTED_EDGE('',*,*,#842,.T.);
#1167=ORIENTED_EDGE('',*,*,#775,.T.);
#1168=ORIENTED_EDGE('',*,*,#837,.F.);
#1169=ORIENTED_EDGE('',*,*,#843,.F.);
#1170=ORIENTED_EDGE('',*,*,#840,.F.);
#1171=ORIENTED_EDGE('',*,*,#753,.F.);
#1172=ORIENTED_EDGE('',*,*,#716,.T.);
#1173=ORIENTED_EDGE('',*,*,#844,.T.);
#1174=ORIENTED_EDGE('',*,*,#830,.T.);
#1175=ORIENTED_EDGE('',*,*,#835,.F.);
#1176=ORIENTED_EDGE('',*,*,#841,.F.);
#1177=ORIENTED_EDGE('',*,*,#838,.F.);
#1178=ORIENTED_EDGE('',*,*,#839,.F.);
#1179=ORIENTED_EDGE('',*,*,#842,.F.);
#1180=ORIENTED_EDGE('',*,*,#834,.F.);
#1181=ORIENTED_EDGE('',*,*,#833,.F.);
#1182=ORIENTED_EDGE('',*,*,#844,.F.);
#1183=ORIENTED_EDGE('',*,*,#836,.F.);
#1184=ORIENTED_EDGE('',*,*,#768,.F.);
#1185=ORIENTED_EDGE('',*,*,#845,.F.);
#1186=ORIENTED_EDGE('',*,*,#846,.F.);
#1187=ORIENTED_EDGE('',*,*,#822,.F.);
#1188=ORIENTED_EDGE('',*,*,#847,.T.);
#1189=ORIENTED_EDGE('',*,*,#848,.T.);
#1190=ORIENTED_EDGE('',*,*,#823,.T.);
#1191=ORIENTED_EDGE('',*,*,#846,.T.);
#1192=ORIENTED_EDGE('',*,*,#849,.F.);
#1193=ORIENTED_EDGE('',*,*,#824,.T.);
#1194=ORIENTED_EDGE('',*,*,#848,.F.);
#1195=ORIENTED_EDGE('',*,*,#850,.T.);
#1196=ORIENTED_EDGE('',*,*,#825,.T.);
#1197=ORIENTED_EDGE('',*,*,#849,.T.);
#1198=ORIENTED_EDGE('',*,*,#851,.T.);
#1199=ORIENTED_EDGE('',*,*,#852,.T.);
#1200=ORIENTED_EDGE('',*,*,#760,.F.);
#1201=ORIENTED_EDGE('',*,*,#777,.T.);
#1202=ORIENTED_EDGE('',*,*,#843,.T.);
#1203=ORIENTED_EDGE('',*,*,#827,.T.);
#1204=ORIENTED_EDGE('',*,*,#762,.F.);
#1205=ORIENTED_EDGE('',*,*,#826,.F.);
#1206=ORIENTED_EDGE('',*,*,#852,.F.);
#1207=ORIENTED_EDGE('',*,*,#853,.F.);
#1208=ORIENTED_EDGE('',*,*,#767,.F.);
#1209=ORIENTED_EDGE('',*,*,#854,.F.);
#1210=ORIENTED_EDGE('',*,*,#814,.F.);
#1211=ORIENTED_EDGE('',*,*,#855,.T.);
#1212=ORIENTED_EDGE('',*,*,#763,.F.);
#1213=ORIENTED_EDGE('',*,*,#853,.T.);
#1214=ORIENTED_EDGE('',*,*,#851,.F.);
#1215=ORIENTED_EDGE('',*,*,#850,.F.);
#1216=ORIENTED_EDGE('',*,*,#847,.F.);
#1217=ORIENTED_EDGE('',*,*,#845,.T.);
#1218=ORIENTED_EDGE('',*,*,#764,.F.);
#1219=ORIENTED_EDGE('',*,*,#855,.F.);
#1220=ORIENTED_EDGE('',*,*,#817,.F.);
#1221=ORIENTED_EDGE('',*,*,#856,.T.);
#1222=ORIENTED_EDGE('',*,*,#765,.F.);
#1223=ORIENTED_EDGE('',*,*,#856,.F.);
#1224=ORIENTED_EDGE('',*,*,#816,.F.);
#1225=ORIENTED_EDGE('',*,*,#857,.T.);
#1226=ORIENTED_EDGE('',*,*,#766,.F.);
#1227=ORIENTED_EDGE('',*,*,#857,.F.);
#1228=ORIENTED_EDGE('',*,*,#815,.F.);
#1229=ORIENTED_EDGE('',*,*,#854,.T.);
#1230=CYLINDRICAL_SURFACE('',#1342,1.);
#1231=CYLINDRICAL_SURFACE('',#1345,1.);
#1232=CYLINDRICAL_SURFACE('',#1352,1.);
#1233=CYLINDRICAL_SURFACE('',#1355,1.);
#1234=CYLINDRICAL_SURFACE('',#1358,1.);
#1235=CYLINDRICAL_SURFACE('',#1364,1.);
#1236=CYLINDRICAL_SURFACE('',#1371,1.);
#1237=CYLINDRICAL_SURFACE('',#1374,1.);
#1238=CYLINDRICAL_SURFACE('',#1381,1.);
#1239=CYLINDRICAL_SURFACE('',#1384,1.);
#1240=CYLINDRICAL_SURFACE('',#1387,1.);
#1241=CYLINDRICAL_SURFACE('',#1393,1.);
#1242=CYLINDRICAL_SURFACE('',#1426,0.5);
#1243=CYLINDRICAL_SURFACE('',#1429,0.5);
#1244=CYLINDRICAL_SURFACE('',#1432,0.5);
#1245=CYLINDRICAL_SURFACE('',#1435,0.5);
#1246=CYLINDRICAL_SURFACE('',#1438,0.5);
#1247=CYLINDRICAL_SURFACE('',#1440,0.5);
#1248=CYLINDRICAL_SURFACE('',#1444,0.5);
#1249=CYLINDRICAL_SURFACE('',#1450,0.5);
#1250=CYLINDRICAL_SURFACE('',#1453,0.5);
#1251=CYLINDRICAL_SURFACE('',#1455,0.5);
#1252=ADVANCED_FACE('',(#75),#1230,.T.);
#1253=ADVANCED_FACE('',(#76),#1231,.T.);
#1254=ADVANCED_FACE('',(#77),#67,.T.);
#1255=ADVANCED_FACE('',(#78),#22,.T.);
#1256=ADVANCED_FACE('',(#79),#23,.T.);
#1257=ADVANCED_FACE('',(#80),#1232,.T.);
#1258=ADVANCED_FACE('',(#81),#24,.T.);
#1259=ADVANCED_FACE('',(#82),#1233,.T.);
#1260=ADVANCED_FACE('',(#83),#1234,.T.);
#1261=ADVANCED_FACE('',(#84),#68,.T.);
#1262=ADVANCED_FACE('',(#85),#25,.T.);
#1263=ADVANCED_FACE('',(#86),#1235,.T.);
#1264=ADVANCED_FACE('',(#87),#26,.T.);
#1265=ADVANCED_FACE('',(#88),#27,.T.);
#1266=ADVANCED_FACE('',(#89),#28,.T.);
#1267=ADVANCED_FACE('',(#90),#29,.T.);
#1268=ADVANCED_FACE('',(#91),#30,.F.);
#1269=ADVANCED_FACE('',(#92),#1236,.T.);
#1270=ADVANCED_FACE('',(#93),#1237,.T.);
#1271=ADVANCED_FACE('',(#94),#69,.T.);
#1272=ADVANCED_FACE('',(#95),#31,.T.);
#1273=ADVANCED_FACE('',(#96),#32,.T.);
#1274=ADVANCED_FACE('',(#97),#1238,.T.);
#1275=ADVANCED_FACE('',(#98),#33,.T.);
#1276=ADVANCED_FACE('',(#99),#1239,.T.);
#1277=ADVANCED_FACE('',(#100),#1240,.T.);
#1278=ADVANCED_FACE('',(#101),#70,.T.);
#1279=ADVANCED_FACE('',(#102),#34,.T.);
#1280=ADVANCED_FACE('',(#103),#1241,.T.);
#1281=ADVANCED_FACE('',(#104),#35,.T.);
#1282=ADVANCED_FACE('',(#105),#36,.T.);
#1283=ADVANCED_FACE('',(#106),#37,.T.);
#1284=ADVANCED_FACE('',(#107),#38,.T.);
#1285=ADVANCED_FACE('',(#108),#39,.F.);
#1286=ADVANCED_FACE('',(#109),#40,.T.);
#1287=ADVANCED_FACE('',(#110),#41,.F.);
#1288=ADVANCED_FACE('',(#111),#42,.F.);
#1289=ADVANCED_FACE('',(#112),#43,.F.);
#1290=ADVANCED_FACE('',(#113),#44,.F.);
#1291=ADVANCED_FACE('',(#114),#45,.F.);
#1292=ADVANCED_FACE('',(#115),#46,.F.);
#1293=ADVANCED_FACE('',(#116),#47,.F.);
#1294=ADVANCED_FACE('',(#117),#48,.F.);
#1295=ADVANCED_FACE('',(#118),#49,.F.);
#1296=ADVANCED_FACE('',(#119),#50,.F.);
#1297=ADVANCED_FACE('',(#120),#51,.F.);
#1298=ADVANCED_FACE('',(#121),#52,.F.);
#1299=ADVANCED_FACE('',(#122),#53,.F.);
#1300=ADVANCED_FACE('',(#123),#54,.F.);
#1301=ADVANCED_FACE('',(#124),#55,.F.);
#1302=ADVANCED_FACE('',(#125,#19,#20,#21),#56,.T.);
#1303=ADVANCED_FACE('',(#126),#57,.T.);
#1304=ADVANCED_FACE('',(#127),#58,.F.);
#1305=ADVANCED_FACE('',(#128),#59,.F.);
#1306=ADVANCED_FACE('',(#129),#1242,.T.);
#1307=ADVANCED_FACE('',(#130),#1243,.T.);
#1308=ADVANCED_FACE('',(#131),#1244,.T.);
#1309=ADVANCED_FACE('',(#132),#1245,.T.);
#1310=ADVANCED_FACE('',(#133),#1246,.T.);
#1311=ADVANCED_FACE('',(#134),#1247,.T.);
#1312=ADVANCED_FACE('',(#135),#71,.T.);
#1313=ADVANCED_FACE('',(#136),#1248,.T.);
#1314=ADVANCED_FACE('',(#137),#72,.T.);
#1315=ADVANCED_FACE('',(#138),#73,.T.);
#1316=ADVANCED_FACE('',(#139),#74,.T.);
#1317=ADVANCED_FACE('',(#140),#60,.F.);
#1318=ADVANCED_FACE('',(#141),#1249,.F.);
#1319=ADVANCED_FACE('',(#142),#61,.T.);
#1320=ADVANCED_FACE('',(#143),#1250,.F.);
#1321=ADVANCED_FACE('',(#144),#1251,.T.);
#1322=ADVANCED_FACE('',(#145),#62,.F.);
#1323=ADVANCED_FACE('',(#146),#63,.T.);
#1324=ADVANCED_FACE('',(#147),#64,.T.);
#1325=ADVANCED_FACE('',(#148),#65,.T.);
#1326=ADVANCED_FACE('',(#149),#66,.T.);
#1327=CLOSED_SHELL('',(#1252,#1253,#1254,#1255,#1256,#1257,#1258,#1259,
#1260,#1261,#1262,#1263,#1264,#1265,#1266,#1267,#1268,#1269,#1270,#1271,
#1272,#1273,#1274,#1275,#1276,#1277,#1278,#1279,#1280,#1281,#1282,#1283,
#1284,#1285,#1286,#1287,#1288,#1289,#1290,#1291,#1292,#1293,#1294,#1295,
#1296,#1297,#1298,#1299,#1300,#1301,#1302,#1303,#1304,#1305,#1306,#1307,
#1308,#1309,#1310,#1311,#1312,#1313,#1314,#1315,#1316,#1317,#1318,#1319,
#1320,#1321,#1322,#1323,#1324,#1325,#1326));
#1328=DERIVED_UNIT_ELEMENT(#1330,1.);
#1329=DERIVED_UNIT_ELEMENT(#2235,-3.);
#1330=(
MASS_UNIT()
NAMED_UNIT(*)
SI_UNIT(.KILO.,.GRAM.)
);
#1331=DERIVED_UNIT((#1328,#1329));
#1332=MEASURE_REPRESENTATION_ITEM('density measure',
POSITIVE_RATIO_MEASURE(7850.),#1331);
#1333=PROPERTY_DEFINITION_REPRESENTATION(#1338,#1335);
#1334=PROPERTY_DEFINITION_REPRESENTATION(#1339,#1336);
#1335=REPRESENTATION('material name',(#1337),#2232);
#1336=REPRESENTATION('density',(#1332),#2232);
#1337=DESCRIPTIVE_REPRESENTATION_ITEM('Steel','Steel');
#1338=PROPERTY_DEFINITION('material property','material name',#2247);
#1339=PROPERTY_DEFINITION('material property','density of part',#2247);
#1340=AXIS2_PLACEMENT_3D('',#1848,#1462,#1463);
#1341=AXIS2_PLACEMENT_3D('',#1849,#1464,#1465);
#1342=AXIS2_PLACEMENT_3D('',#1850,#1466,#1467);
#1343=AXIS2_PLACEMENT_3D('',#1853,#1468,#1469);
#1344=AXIS2_PLACEMENT_3D('',#1857,#1471,#1472);
#1345=AXIS2_PLACEMENT_3D('',#1859,#1474,#1475);
#1346=AXIS2_PLACEMENT_3D('',#1861,#1476,#1477);
#1347=AXIS2_PLACEMENT_3D('',#1865,#1479,#1480);
#1348=AXIS2_PLACEMENT_3D('',#1867,#1482,#1483);
#1349=AXIS2_PLACEMENT_3D('',#1868,#1484,#1485);
#1350=AXIS2_PLACEMENT_3D('',#1869,#1486,#1487);
#1351=AXIS2_PLACEMENT_3D('',#1877,#1492,#1493);
#1352=AXIS2_PLACEMENT_3D('',#1881,#1496,#1497);
#1353=AXIS2_PLACEMENT_3D('',#1884,#1499,#1500);
#1354=AXIS2_PLACEMENT_3D('',#1885,#1501,#1502);
#1355=AXIS2_PLACEMENT_3D('',#1889,#1505,#1506);
#1356=AXIS2_PLACEMENT_3D('',#1892,#1507,#1508);
#1357=AXIS2_PLACEMENT_3D('',#1896,#1510,#1511);
#1358=AXIS2_PLACEMENT_3D('',#1898,#1513,#1514);
#1359=AXIS2_PLACEMENT_3D('',#1901,#1515,#1516);
#1360=AXIS2_PLACEMENT_3D('',#1904,#1518,#1519);
#1361=AXIS2_PLACEMENT_3D('',#1906,#1521,#1522);
#1362=AXIS2_PLACEMENT_3D('',#1907,#1523,#1524);
#1363=AXIS2_PLACEMENT_3D('',#1908,#1525,#1526);
#1364=AXIS2_PLACEMENT_3D('',#1914,#1530,#1531);
#1365=AXIS2_PLACEMENT_3D('',#1917,#1533,#1534);
#1366=AXIS2_PLACEMENT_3D('',#1918,#1535,#1536);
#1367=AXIS2_PLACEMENT_3D('',#1922,#1539,#1540);
#1368=AXIS2_PLACEMENT_3D('',#1924,#1542,#1543);
#1369=AXIS2_PLACEMENT_3D('',#1928,#1546,#1547);
#1370=AXIS2_PLACEMENT_3D('',#1932,#1550,#1551);
#1371=AXIS2_PLACEMENT_3D('',#1943,#1558,#1559);
#1372=AXIS2_PLACEMENT_3D('',#1946,#1560,#1561);
#1373=AXIS2_PLACEMENT_3D('',#1950,#1563,#1564);
#1374=AXIS2_PLACEMENT_3D('',#1952,#1566,#1567);
#1375=AXIS2_PLACEMENT_3D('',#1954,#1568,#1569);
#1376=AXIS2_PLACEMENT_3D('',#1958,#1571,#1572);
#1377=AXIS2_PLACEMENT_3D('',#1960,#1574,#1575);
#1378=AXIS2_PLACEMENT_3D('',#1961,#1576,#1577);
#1379=AXIS2_PLACEMENT_3D('',#1962,#1578,#1579);
#1380=AXIS2_PLACEMENT_3D('',#1970,#1584,#1585);
#1381=AXIS2_PLACEMENT_3D('',#1974,#1588,#1589);
#1382=AXIS2_PLACEMENT_3D('',#1977,#1591,#1592);
#1383=AXIS2_PLACEMENT_3D('',#1978,#1593,#1594);
#1384=AXIS2_PLACEMENT_3D('',#1982,#1597,#1598);
#1385=AXIS2_PLACEMENT_3D('',#1985,#1599,#1600);
#1386=AXIS2_PLACEMENT_3D('',#1989,#1602,#1603);
#1387=AXIS2_PLACEMENT_3D('',#1991,#1605,#1606);
#1388=AXIS2_PLACEMENT_3D('',#1994,#1607,#1608);
#1389=AXIS2_PLACEMENT_3D('',#1997,#1610,#1611);
#1390=AXIS2_PLACEMENT_3D('',#1999,#1613,#1614);
#1391=AXIS2_PLACEMENT_3D('',#2000,#1615,#1616);
#1392=AXIS2_PLACEMENT_3D('',#2001,#1617,#1618);
#1393=AXIS2_PLACEMENT_3D('',#2007,#1622,#1623);
#1394=AXIS2_PLACEMENT_3D('',#2010,#1625,#1626);
#1395=AXIS2_PLACEMENT_3D('',#2011,#1627,#1628);
#1396=AXIS2_PLACEMENT_3D('',#2015,#1631,#1632);
#1397=AXIS2_PLACEMENT_3D('',#2017,#1633,#1634);
#1398=AXIS2_PLACEMENT_3D('',#2021,#1636,#1637);
#1399=AXIS2_PLACEMENT_3D('',#2029,#1642,#1643);
#1400=AXIS2_PLACEMENT_3D('',#2048,#1653,#1654);
#1401=AXIS2_PLACEMENT_3D('',#2049,#1655,#1656);
#1402=AXIS2_PLACEMENT_3D('',#2053,#1659,#1660);
#1403=AXIS2_PLACEMENT_3D('',#2055,#1662,#1663);
#1404=AXIS2_PLACEMENT_3D('',#2062,#1668,#1669);
#1405=AXIS2_PLACEMENT_3D('',#2063,#1670,#1671);
#1406=AXIS2_PLACEMENT_3D('',#2072,#1676,#1677);
#1407=AXIS2_PLACEMENT_3D('',#2078,#1681,#1682);
#1408=AXIS2_PLACEMENT_3D('',#2084,#1686,#1687);
#1409=AXIS2_PLACEMENT_3D('',#2087,#1690,#1691);
#1410=AXIS2_PLACEMENT_3D('',#2096,#1696,#1697);
#1411=AXIS2_PLACEMENT_3D('',#2102,#1701,#1702);
#1412=AXIS2_PLACEMENT_3D('',#2108,#1706,#1707);
#1413=AXIS2_PLACEMENT_3D('',#2111,#1710,#1711);
#1414=AXIS2_PLACEMENT_3D('',#2120,#1716,#1717);
#1415=AXIS2_PLACEMENT_3D('',#2126,#1721,#1722);
#1416=AXIS2_PLACEMENT_3D('',#2132,#1726,#1727);
#1417=AXIS2_PLACEMENT_3D('',#2135,#1730,#1731);
#1418=AXIS2_PLACEMENT_3D('',#2136,#1732,#1733);
#1419=AXIS2_PLACEMENT_3D('',#2137,#1734,#1735);
#1420=AXIS2_PLACEMENT_3D('',#2138,#1736,#1737);
#1421=AXIS2_PLACEMENT_3D('',#2147,#1742,#1743);
#1422=AXIS2_PLACEMENT_3D('',#2156,#1748,#1749);
#1423=AXIS2_PLACEMENT_3D('',#2160,#1751,#1752);
#1424=AXIS2_PLACEMENT_3D('',#2164,#1754,#1755);
#1425=AXIS2_PLACEMENT_3D('',#2171,#1760,#1761);
#1426=AXIS2_PLACEMENT_3D('',#2177,#1765,#1766);
#1427=AXIS2_PLACEMENT_3D('',#2178,#1767,#1768);
#1428=AXIS2_PLACEMENT_3D('',#2179,#1769,#1770);
#1429=AXIS2_PLACEMENT_3D('',#2180,#1771,#1772);
#1430=AXIS2_PLACEMENT_3D('',#2181,#1773,#1774);
#1431=AXIS2_PLACEMENT_3D('',#2182,#1775,#1776);
#1432=AXIS2_PLACEMENT_3D('',#2183,#1777,#1778);
#1433=AXIS2_PLACEMENT_3D('',#2184,#1779,#1780);
#1434=AXIS2_PLACEMENT_3D('',#2185,#1781,#1782);
#1435=AXIS2_PLACEMENT_3D('',#2186,#1783,#1784);
#1436=AXIS2_PLACEMENT_3D('',#2187,#1785,#1786);
#1437=AXIS2_PLACEMENT_3D('',#2188,#1787,#1788);
#1438=AXIS2_PLACEMENT_3D('',#2189,#1789,#1790);
#1439=AXIS2_PLACEMENT_3D('',#2190,#1791,#1792);
#1440=AXIS2_PLACEMENT_3D('',#2191,#1793,#1794);
#1441=AXIS2_PLACEMENT_3D('',#2192,#1795,#1796);
#1442=AXIS2_PLACEMENT_3D('',#2193,#1797,#1798);
#1443=AXIS2_PLACEMENT_3D('',#2194,#1799,#1800);
#1444=AXIS2_PLACEMENT_3D('',#2195,#1801,#1802);
#1445=AXIS2_PLACEMENT_3D('',#2196,#1803,#1804);
#1446=AXIS2_PLACEMENT_3D('',#2197,#1805,#1806);
#1447=AXIS2_PLACEMENT_3D('',#2198,#1807,#1808);
#1448=AXIS2_PLACEMENT_3D('',#2199,#1809,#1810);
#1449=AXIS2_PLACEMENT_3D('',#2200,#1811,#1812);
#1450=AXIS2_PLACEMENT_3D('',#2204,#1815,#1816);
#1451=AXIS2_PLACEMENT_3D('',#2206,#1817,#1818);
#1452=AXIS2_PLACEMENT_3D('',#2208,#1820,#1821);
#1453=AXIS2_PLACEMENT_3D('',#2212,#1824,#1825);
#1454=AXIS2_PLACEMENT_3D('',#2214,#1826,#1827);
#1455=AXIS2_PLACEMENT_3D('',#2216,#1829,#1830);
#1456=AXIS2_PLACEMENT_3D('',#2217,#1831,#1832);
#1457=AXIS2_PLACEMENT_3D('',#2219,#1834,#1835);
#1458=AXIS2_PLACEMENT_3D('',#2222,#1838,#1839);
#1459=AXIS2_PLACEMENT_3D('',#2224,#1841,#1842);
#1460=AXIS2_PLACEMENT_3D('',#2226,#1844,#1845);
#1461=AXIS2_PLACEMENT_3D('',#2227,#1846,#1847);
#1462=DIRECTION('axis',(0.,0.,1.));
#1463=DIRECTION('refdir',(1.,0.,0.));
#1464=DIRECTION('axis',(0.,0.,1.));
#1465=DIRECTION('refdir',(1.,0.,0.));
#1466=DIRECTION('center_axis',(0.,-1.,0.));
#1467=DIRECTION('ref_axis',(-0.707106781186553,0.,-0.707106781186543));
#1468=DIRECTION('center_axis',(0.,-1.,0.));
#1469=DIRECTION('ref_axis',(-0.707106781186553,0.,-0.707106781186543));
#1470=DIRECTION('',(0.,-1.,0.));
#1471=DIRECTION('center_axis',(0.,1.,0.));
#1472=DIRECTION('ref_axis',(0.,0.,-1.));
#1473=DIRECTION('',(0.,1.,0.));
#1474=DIRECTION('center_axis',(-1.,0.,0.));
#1475=DIRECTION('ref_axis',(0.,-0.707106781186546,-0.707106781186549));
#1476=DIRECTION('center_axis',(1.,0.,0.));
#1477=DIRECTION('ref_axis',(0.,-1.,0.));
#1478=DIRECTION('',(1.,0.,0.));
#1479=DIRECTION('center_axis',(1.,0.,0.));
#1480=DIRECTION('ref_axis',(0.,-0.707106781186546,-0.707106781186549));
#1481=DIRECTION('',(-1.,0.,0.));
#1482=DIRECTION('center_axis',(0.408248290463858,-0.81649658092773,0.408248290463861));
#1483=DIRECTION('ref_axis',(-0.577350269189624,-0.577350269189624,-0.577350269189629));
#1484=DIRECTION('center_axis',(0.,0.,-1.));
#1485=DIRECTION('ref_axis',(-0.707106781186552,-0.707106781186543,0.));
#1486=DIRECTION('center_axis',(0.,1.,0.));
#1487=DIRECTION('ref_axis',(0.,0.,-1.));
#1488=DIRECTION('',(0.,0.,-1.));
#1489=DIRECTION('',(-1.,0.,0.));
#1490=DIRECTION('',(0.,0.,1.));
#1491=DIRECTION('',(-1.,0.,0.));
#1492=DIRECTION('center_axis',(-1.,0.,0.));
#1493=DIRECTION('ref_axis',(0.,0.,1.));
#1494=DIRECTION('',(0.,0.,-1.));
#1495=DIRECTION('',(0.,1.,0.));
#1496=DIRECTION('center_axis',(0.,0.,1.));
#1497=DIRECTION('ref_axis',(-0.707106781186554,-0.707106781186541,0.));
#1498=DIRECTION('',(0.,0.,1.));
#1499=DIRECTION('center_axis',(0.,0.,-1.));
#1500=DIRECTION('ref_axis',(-0.707106781186554,-0.707106781186541,0.));
#1501=DIRECTION('center_axis',(0.,-1.,0.));
#1502=DIRECTION('ref_axis',(0.,0.,1.));
#1503=DIRECTION('',(0.,0.,-1.));
#1504=DIRECTION('',(-1.,0.,0.));
#1505=DIRECTION('center_axis',(-1.,0.,0.));
#1506=DIRECTION('ref_axis',(0.,0.707106781186546,-0.707106781186549));
#1507=DIRECTION('center_axis',(1.,0.,0.));
#1508=DIRECTION('ref_axis',(0.,0.,-1.));
#1509=DIRECTION('',(1.,0.,0.));
#1510=DIRECTION('center_axis',(1.,0.,0.));
#1511=DIRECTION('ref_axis',(0.,0.707106781186546,-0.707106781186549));
#1512=DIRECTION('',(-1.,0.,0.));
#1513=DIRECTION('center_axis',(0.,-1.,0.));
#1514=DIRECTION('ref_axis',(-0.707106781186553,0.,-0.707106781186543));
#1515=DIRECTION('center_axis',(0.,1.,0.));
#1516=DIRECTION('ref_axis',(-0.707106781186553,0.,-0.707106781186543));
#1517=DIRECTION('',(0.,1.,0.));
#1518=DIRECTION('center_axis',(0.,-1.,0.));
#1519=DIRECTION('ref_axis',(-1.,0.,-2.7755575615629E-16));
#1520=DIRECTION('',(0.,-1.,0.));
#1521=DIRECTION('center_axis',(-0.408248290463858,-0.81649658092773,-0.408248290463861));
#1522=DIRECTION('ref_axis',(-0.577350269189624,0.577350269189624,-0.577350269189629));
#1523=DIRECTION('center_axis',(0.,0.,-1.));
#1524=DIRECTION('ref_axis',(-0.707106781186552,0.707106781186543,0.));
#1525=DIRECTION('center_axis',(0.,1.,0.));
#1526=DIRECTION('ref_axis',(0.,0.,-1.));
#1527=DIRECTION('',(0.,0.,-1.));
#1528=DIRECTION('',(-1.,0.,0.));
#1529=DIRECTION('',(0.,0.,1.));
#1530=DIRECTION('center_axis',(0.,0.,-1.));
#1531=DIRECTION('ref_axis',(-0.707106781186554,0.707106781186541,0.));
#1532=DIRECTION('',(0.,0.,1.));
#1533=DIRECTION('center_axis',(0.,0.,-1.));
#1534=DIRECTION('ref_axis',(-0.707106781186554,0.707106781186541,0.));
#1535=DIRECTION('center_axis',(-1.,0.,0.));
#1536=DIRECTION('ref_axis',(0.,0.,1.));
#1537=DIRECTION('',(0.,0.,1.));
#1538=DIRECTION('',(0.,1.,0.));
#1539=DIRECTION('center_axis',(0.,0.,-1.));
#1540=DIRECTION('ref_axis',(0.,-1.,0.));
#1541=DIRECTION('',(0.,1.,0.));
#1542=DIRECTION('center_axis',(0.,0.,-1.));
#1543=DIRECTION('ref_axis',(0.,-1.,0.));
#1544=DIRECTION('',(0.,1.,0.));
#1545=DIRECTION('',(-1.,0.,0.));
#1546=DIRECTION('center_axis',(0.,-1.,0.));
#1547=DIRECTION('ref_axis',(0.,0.,1.));
#1548=DIRECTION('',(0.,0.,-1.));
#1549=DIRECTION('',(-1.,0.,0.));
#1550=DIRECTION('center_axis',(1.,0.,0.));
#1551=DIRECTION('ref_axis',(0.,-1.,0.));
#1552=DIRECTION('',(0.,-1.,0.));
#1553=DIRECTION('',(0.,-1.,0.));
#1554=DIRECTION('',(0.,0.,1.));
#1555=DIRECTION('',(0.,1.,0.));
#1556=DIRECTION('',(0.,0.,-1.));
#1557=DIRECTION('',(0.,-1.,0.));
#1558=DIRECTION('center_axis',(0.,1.,0.));
#1559=DIRECTION('ref_axis',(0.70710678118654,0.,-0.707106781186555));
#1560=DIRECTION('center_axis',(0.,1.,0.));
#1561=DIRECTION('ref_axis',(0.70710678118654,0.,-0.707106781186555));
#1562=DIRECTION('',(0.,1.,0.));
#1563=DIRECTION('center_axis',(0.,-1.,0.));
#1564=DIRECTION('ref_axis',(0.,0.,-1.));
#1565=DIRECTION('',(0.,-1.,0.));
#1566=DIRECTION('center_axis',(1.,0.,0.));
#1567=DIRECTION('ref_axis',(0.,0.707106781186546,-0.707106781186549));
#1568=DIRECTION('center_axis',(-1.,0.,0.));
#1569=DIRECTION('ref_axis',(0.,1.,0.));
#1570=DIRECTION('',(-1.,0.,0.));
#1571=DIRECTION('center_axis',(-1.,0.,0.));
#1572=DIRECTION('ref_axis',(0.,0.707106781186546,-0.707106781186549));
#1573=DIRECTION('',(1.,0.,0.));
#1574=DIRECTION('center_axis',(0.408248290463858,-0.81649658092773,-0.408248290463861));
#1575=DIRECTION('ref_axis',(0.577350269189624,0.577350269189624,-0.577350269189629));
#1576=DIRECTION('center_axis',(0.,0.,-1.));
#1577=DIRECTION('ref_axis',(0.707106781186543,0.707106781186552,0.));
#1578=DIRECTION('center_axis',(0.,-1.,0.));
#1579=DIRECTION('ref_axis',(0.,0.,-1.));
#1580=DIRECTION('',(0.,0.,-1.));
#1581=DIRECTION('',(1.,0.,0.));
#1582=DIRECTION('',(0.,0.,1.));
#1583=DIRECTION('',(1.,0.,0.));
#1584=DIRECTION('center_axis',(1.,0.,0.));
#1585=DIRECTION('ref_axis',(0.,0.,-1.));
#1586=DIRECTION('',(0.,0.,-1.));
#1587=DIRECTION('',(0.,-1.,0.));
#1588=DIRECTION('center_axis',(0.,0.,1.));
#1589=DIRECTION('ref_axis',(0.707106781186541,0.707106781186554,0.));
#1590=DIRECTION('',(0.,0.,1.));
#1591=DIRECTION('center_axis',(0.,0.,-1.));
#1592=DIRECTION('ref_axis',(0.707106781186541,0.707106781186554,0.));
#1593=DIRECTION('center_axis',(0.,1.,0.));
#1594=DIRECTION('ref_axis',(0.,0.,1.));
#1595=DIRECTION('',(0.,0.,-1.));
#1596=DIRECTION('',(1.,0.,0.));
#1597=DIRECTION('center_axis',(1.,0.,0.));
#1598=DIRECTION('ref_axis',(0.,-0.707106781186546,-0.707106781186549));
#1599=DIRECTION('center_axis',(-1.,0.,0.));
#1600=DIRECTION('ref_axis',(0.,0.,-1.));
#1601=DIRECTION('',(-1.,0.,0.));
#1602=DIRECTION('center_axis',(-1.,0.,0.));
#1603=DIRECTION('ref_axis',(0.,-0.707106781186546,-0.707106781186549));
#1604=DIRECTION('',(1.,0.,0.));
#1605=DIRECTION('center_axis',(0.,1.,0.));
#1606=DIRECTION('ref_axis',(0.70710678118654,0.,-0.707106781186555));
#1607=DIRECTION('center_axis',(0.,-1.,0.));
#1608=DIRECTION('ref_axis',(0.70710678118654,0.,-0.707106781186555));
#1609=DIRECTION('',(0.,-1.,0.));
#1610=DIRECTION('center_axis',(0.,1.,0.));
#1611=DIRECTION('ref_axis',(1.,0.,-2.7755575615629E-16));
#1612=DIRECTION('',(0.,1.,0.));
#1613=DIRECTION('center_axis',(-0.408248290463858,-0.81649658092773,0.408248290463861));
#1614=DIRECTION('ref_axis',(0.577350269189624,-0.577350269189624,-0.577350269189629));
#1615=DIRECTION('center_axis',(0.,0.,-1.));
#1616=DIRECTION('ref_axis',(0.707106781186543,-0.707106781186552,0.));
#1617=DIRECTION('center_axis',(0.,-1.,0.));
#1618=DIRECTION('ref_axis',(0.,0.,-1.));
#1619=DIRECTION('',(0.,0.,-1.));
#1620=DIRECTION('',(1.,0.,0.));
#1621=DIRECTION('',(0.,0.,1.));
#1622=DIRECTION('center_axis',(0.,0.,-1.));
#1623=DIRECTION('ref_axis',(0.707106781186541,-0.707106781186554,0.));
#1624=DIRECTION('',(0.,0.,1.));
#1625=DIRECTION('center_axis',(0.,0.,-1.));
#1626=DIRECTION('ref_axis',(0.707106781186541,-0.707106781186554,0.));
#1627=DIRECTION('center_axis',(1.,0.,0.));
#1628=DIRECTION('ref_axis',(0.,0.,-1.));
#1629=DIRECTION('',(0.,0.,1.));
#1630=DIRECTION('',(0.,-1.,0.));
#1631=DIRECTION('center_axis',(0.,0.,1.));
#1632=DIRECTION('ref_axis',(1.,0.,0.));
#1633=DIRECTION('center_axis',(0.,0.,1.));
#1634=DIRECTION('ref_axis',(-0.707106781186548,-0.707106781186548,0.));
#1635=DIRECTION('',(1.,0.,0.));
#1636=DIRECTION('center_axis',(0.,0.,1.));
#1637=DIRECTION('ref_axis',(0.707106781186548,-0.707106781186548,0.));
#1638=DIRECTION('',(0.,1.,0.));
#1639=DIRECTION('',(1.,0.,0.));
#1640=DIRECTION('',(0.,1.,0.));
#1641=DIRECTION('',(0.,1.,0.));
#1642=DIRECTION('center_axis',(0.,0.,1.));
#1643=DIRECTION('ref_axis',(0.707106781186548,0.707106781186548,0.));
#1644=DIRECTION('',(-1.,0.,0.));
#1645=DIRECTION('',(0.,-1.,0.));
#1646=DIRECTION('',(1.,0.,0.));
#1647=DIRECTION('',(0.,-1.,0.));
#1648=DIRECTION('',(-1.,0.,0.));
#1649=DIRECTION('',(0.,1.,0.));
#1650=DIRECTION('',(1.,0.,0.));
#1651=DIRECTION('',(0.,1.,0.));
#1652=DIRECTION('',(-1.,0.,0.));
#1653=DIRECTION('center_axis',(0.,0.,1.));
#1654=DIRECTION('ref_axis',(-0.707106781186548,0.707106781186548,0.));
#1655=DIRECTION('center_axis',(0.,0.,-1.));
#1656=DIRECTION('ref_axis',(0.,1.,0.));
#1657=DIRECTION('',(0.,-1.,0.));
#1658=DIRECTION('',(1.,0.,0.));
#1659=DIRECTION('center_axis',(0.,0.,-1.));
#1660=DIRECTION('ref_axis',(0.,1.,0.));
#1661=DIRECTION('',(0.,-1.,0.));
#1662=DIRECTION('center_axis',(-1.,0.,0.));
#1663=DIRECTION('ref_axis',(0.,1.,0.));
#1664=DIRECTION('',(0.,0.,-1.));
#1665=DIRECTION('',(0.,0.,1.));
#1666=DIRECTION('',(0.,-1.,0.));
#1667=DIRECTION('',(0.,0.,-1.));
#1668=DIRECTION('center_axis',(0.,1.,0.));
#1669=DIRECTION('ref_axis',(0.,0.,1.));
#1670=DIRECTION('center_axis',(0.,-1.,0.));
#1671=DIRECTION('ref_axis',(-1.,0.,0.));
#1672=DIRECTION('',(-1.,0.,0.));
#1673=DIRECTION('',(0.,0.,-1.));
#1674=DIRECTION('',(-1.,0.,0.));
#1675=DIRECTION('',(0.,0.,-1.));
#1676=DIRECTION('center_axis',(-1.,0.,0.));
#1677=DIRECTION('ref_axis',(0.,1.,0.));
#1678=DIRECTION('',(0.,1.,0.));
#1679=DIRECTION('',(0.,1.,0.));
#1680=DIRECTION('',(0.,0.,-1.));
#1681=DIRECTION('center_axis',(0.,1.,0.));
#1682=DIRECTION('ref_axis',(1.,0.,0.));
#1683=DIRECTION('',(1.,0.,0.));
#1684=DIRECTION('',(1.,0.,0.));
#1685=DIRECTION('',(0.,0.,-1.));
#1686=DIRECTION('center_axis',(1.,0.,0.));
#1687=DIRECTION('ref_axis',(0.,-1.,0.));
#1688=DIRECTION('',(0.,-1.,0.));
#1689=DIRECTION('',(0.,-1.,0.));
#1690=DIRECTION('center_axis',(0.,-1.,0.));
#1691=DIRECTION('ref_axis',(-1.,0.,0.));
#1692=DIRECTION('',(-1.,0.,0.));
#1693=DIRECTION('',(0.,0.,-1.));
#1694=DIRECTION('',(-1.,0.,0.));
#1695=DIRECTION('',(0.,0.,-1.));
#1696=DIRECTION('center_axis',(-1.,0.,0.));
#1697=DIRECTION('ref_axis',(0.,1.,0.));
#1698=DIRECTION('',(0.,1.,0.));
#1699=DIRECTION('',(0.,1.,0.));
#1700=DIRECTION('',(0.,0.,-1.));
#1701=DIRECTION('center_axis',(0.,1.,0.));
#1702=DIRECTION('ref_axis',(1.,0.,0.));
#1703=DIRECTION('',(1.,0.,0.));
#1704=DIRECTION('',(1.,0.,0.));
#1705=DIRECTION('',(0.,0.,-1.));
#1706=DIRECTION('center_axis',(1.,0.,0.));
#1707=DIRECTION('ref_axis',(0.,-1.,0.));
#1708=DIRECTION('',(0.,-1.,0.));
#1709=DIRECTION('',(0.,-1.,0.));
#1710=DIRECTION('center_axis',(0.,-1.,0.));
#1711=DIRECTION('ref_axis',(-1.,0.,0.));
#1712=DIRECTION('',(-1.,0.,0.));
#1713=DIRECTION('',(0.,0.,-1.));
#1714=DIRECTION('',(-1.,0.,0.));
#1715=DIRECTION('',(0.,0.,-1.));
#1716=DIRECTION('center_axis',(-1.,0.,0.));
#1717=DIRECTION('ref_axis',(0.,1.,0.));
#1718=DIRECTION('',(0.,1.,0.));
#1719=DIRECTION('',(0.,1.,0.));
#1720=DIRECTION('',(0.,0.,-1.));
#1721=DIRECTION('center_axis',(0.,1.,0.));
#1722=DIRECTION('ref_axis',(1.,0.,0.));
#1723=DIRECTION('',(1.,0.,0.));
#1724=DIRECTION('',(1.,0.,0.));
#1725=DIRECTION('',(0.,0.,-1.));
#1726=DIRECTION('center_axis',(1.,0.,0.));
#1727=DIRECTION('ref_axis',(0.,-1.,0.));
#1728=DIRECTION('',(0.,-1.,0.));
#1729=DIRECTION('',(0.,-1.,0.));
#1730=DIRECTION('center_axis',(0.,0.,-1.));
#1731=DIRECTION('ref_axis',(-1.,0.,0.));
#1732=DIRECTION('center_axis',(0.,0.,-1.));
#1733=DIRECTION('ref_axis',(-1.,0.,0.));
#1734=DIRECTION('center_axis',(0.,0.,-1.));
#1735=DIRECTION('ref_axis',(-1.,0.,0.));
#1736=DIRECTION('center_axis',(0.,0.,1.));
#1737=DIRECTION('ref_axis',(-1.,0.,0.));
#1738=DIRECTION('',(-1.,0.,0.));
#1739=DIRECTION('',(0.,-1.,0.));
#1740=DIRECTION('',(1.,0.,0.));
#1741=DIRECTION('',(0.,1.,0.));
#1742=DIRECTION('center_axis',(0.,0.,-1.));
#1743=DIRECTION('ref_axis',(-1.,0.,0.));
#1744=DIRECTION('',(0.,1.,0.));
#1745=DIRECTION('',(1.,0.,0.));
#1746=DIRECTION('',(0.,-1.,0.));
#1747=DIRECTION('',(-1.,0.,0.));
#1748=DIRECTION('center_axis',(0.,-1.,0.));
#1749=DIRECTION('ref_axis',(-1.,0.,0.));
#1750=DIRECTION('',(0.,0.,-1.));
#1751=DIRECTION('center_axis',(0.,1.,0.));
#1752=DIRECTION('ref_axis',(-0.707106781186553,0.,-0.707106781186542));
#1753=DIRECTION('',(-1.,0.,0.));
#1754=DIRECTION('center_axis',(0.,1.,0.));
#1755=DIRECTION('ref_axis',(0.707106781186553,0.,-0.707106781186542));
#1756=DIRECTION('',(0.,0.,1.));
#1757=DIRECTION('',(0.,0.,1.));
#1758=DIRECTION('',(1.,0.,0.));
#1759=DIRECTION('',(0.,0.,-1.));
#1760=DIRECTION('center_axis',(0.,1.,0.));
#1761=DIRECTION('ref_axis',(1.,0.,0.));
#1762=DIRECTION('',(0.,0.,1.));
#1763=DIRECTION('',(-1.,0.,0.));
#1764=DIRECTION('',(0.,0.,-1.));
#1765=DIRECTION('center_axis',(-1.,0.,0.));
#1766=DIRECTION('ref_axis',(0.,-0.707106781186553,-0.707106781186543));
#1767=DIRECTION('center_axis',(-1.,0.,0.));
#1768=DIRECTION('ref_axis',(0.,-1.,0.));
#1769=DIRECTION('center_axis',(1.,0.,0.));
#1770=DIRECTION('ref_axis',(0.,0.,-1.));
#1771=DIRECTION('center_axis',(0.,1.,0.));
#1772=DIRECTION('ref_axis',(-0.707106781186553,0.,-0.707106781186543));
#1773=DIRECTION('center_axis',(0.,1.,0.));
#1774=DIRECTION('ref_axis',(-1.,0.,0.));
#1775=DIRECTION('center_axis',(0.,-1.,0.));
#1776=DIRECTION('ref_axis',(0.,0.,-1.));
#1777=DIRECTION('center_axis',(1.,0.,0.));
#1778=DIRECTION('ref_axis',(0.,0.707106781186553,-0.707106781186543));
#1779=DIRECTION('center_axis',(1.,0.,0.));
#1780=DIRECTION('ref_axis',(0.,1.,0.));
#1781=DIRECTION('center_axis',(-1.,0.,0.));
#1782=DIRECTION('ref_axis',(0.,0.,-1.));
#1783=DIRECTION('center_axis',(0.,-1.,0.));
#1784=DIRECTION('ref_axis',(0.707106781186553,0.,-0.707106781186543));
#1785=DIRECTION('center_axis',(0.,-1.,0.));
#1786=DIRECTION('ref_axis',(1.,0.,0.));
#1787=DIRECTION('center_axis',(0.,1.,0.));
#1788=DIRECTION('ref_axis',(0.,0.,-1.));
#1789=DIRECTION('center_axis',(0.,0.,-1.));
#1790=DIRECTION('ref_axis',(-0.707106781186548,0.707106781186548,0.));
#1791=DIRECTION('center_axis',(0.,0.,-1.));
#1792=DIRECTION('ref_axis',(0.,1.,0.));
#1793=DIRECTION('center_axis',(0.,0.,1.));
#1794=DIRECTION('ref_axis',(0.707106781186548,-0.707106781186548,0.));
#1795=DIRECTION('center_axis',(0.,0.,-1.));
#1796=DIRECTION('ref_axis',(0.,-1.,0.));
#1797=DIRECTION('center_axis',(-0.408248290463856,-0.408248290463856,-0.816496580927733));
#1798=DIRECTION('ref_axis',(0.577350269189637,0.577350269189623,-0.577350269189618));
#1799=DIRECTION('center_axis',(0.,0.,-1.));
#1800=DIRECTION('ref_axis',(1.,0.,0.));
#1801=DIRECTION('center_axis',(0.,0.,-1.));
#1802=DIRECTION('ref_axis',(-0.707106781186548,-0.707106781186548,0.));
#1803=DIRECTION('center_axis',(0.,0.,-1.));
#1804=DIRECTION('ref_axis',(-1.,0.,0.));
#1805=DIRECTION('center_axis',(0.408248290463861,-0.408248290463861,-0.816496580927728));
#1806=DIRECTION('ref_axis',(-0.577350269189645,0.577350269189617,-0.577350269189616));
#1807=DIRECTION('center_axis',(-0.816496580927723,-0.408248290463862,-0.40824829046387));
#1808=DIRECTION('ref_axis',(0.577350269189643,-0.577350269189614,-0.57735026918962));
#1809=DIRECTION('center_axis',(-0.816496580927723,0.408248290463862,0.40824829046387));
#1810=DIRECTION('ref_axis',(-0.577350269189643,-0.577350269189614,-0.57735026918962));
#1811=DIRECTION('center_axis',(-1.,0.,0.));
#1812=DIRECTION('ref_axis',(0.,0.,1.));
#1813=DIRECTION('',(0.,0.,1.));
#1814=DIRECTION('',(0.,-1.,0.));
#1815=DIRECTION('center_axis',(0.,1.,0.));
#1816=DIRECTION('ref_axis',(-0.707106781186553,0.,-0.707106781186542));
#1817=DIRECTION('center_axis',(0.,-1.,0.));
#1818=DIRECTION('ref_axis',(-0.707106781186553,0.,-0.707106781186542));
#1819=DIRECTION('',(0.,1.,0.));
#1820=DIRECTION('center_axis',(0.,0.,1.));
#1821=DIRECTION('ref_axis',(1.,0.,0.));
#1822=DIRECTION('',(0.,-1.,0.));
#1823=DIRECTION('',(1.,0.,0.));
#1824=DIRECTION('center_axis',(0.,-1.,0.));
#1825=DIRECTION('ref_axis',(0.707106781186553,0.,-0.707106781186542));
#1826=DIRECTION('center_axis',(0.,-1.,0.));
#1827=DIRECTION('ref_axis',(0.707106781186553,0.,-0.707106781186542));
#1828=DIRECTION('',(0.,1.,0.));
#1829=DIRECTION('center_axis',(0.,0.,-1.));
#1830=DIRECTION('ref_axis',(0.707106781186548,0.707106781186548,0.));
#1831=DIRECTION('center_axis',(1.,0.,0.));
#1832=DIRECTION('ref_axis',(0.,0.,-1.));
#1833=DIRECTION('',(0.,0.,-1.));
#1834=DIRECTION('center_axis',(0.,-1.,0.));
#1835=DIRECTION('ref_axis',(1.,0.,0.));
#1836=DIRECTION('',(0.,0.,1.));
#1837=DIRECTION('',(0.,0.,1.));
#1838=DIRECTION('center_axis',(-1.,0.,0.));
#1839=DIRECTION('ref_axis',(0.,-1.,0.));
#1840=DIRECTION('',(0.,0.,1.));
#1841=DIRECTION('center_axis',(0.,1.,0.));
#1842=DIRECTION('ref_axis',(-1.,0.,0.));
#1843=DIRECTION('',(0.,0.,1.));
#1844=DIRECTION('center_axis',(1.,0.,0.));
#1845=DIRECTION('ref_axis',(0.,1.,0.));
#1846=DIRECTION('',(0.,0.,1.));
#1847=DIRECTION('',(1.,0.,0.));
#1848=CARTESIAN_POINT('',(0.,0.,0.));
#1849=CARTESIAN_POINT('',(0.,0.,0.));
#1850=CARTESIAN_POINT('Origin',(127.452,-78.0505,1.81));
#1851=CARTESIAN_POINT('',(126.452,-77.738,1.81));
#1852=CARTESIAN_POINT('',(127.452,-77.738,0.810000000000002));
#1853=CARTESIAN_POINT('Origin',(127.452,-77.738,1.81));
#1854=CARTESIAN_POINT('',(127.452,-77.988,0.810000000000002));
#1855=CARTESIAN_POINT('',(127.452,-78.0505,0.810000000000002));
#1856=CARTESIAN_POINT('',(126.452,-77.988,1.81));
#1857=CARTESIAN_POINT('Origin',(127.452,-77.988,1.81));
#1858=CARTESIAN_POINT('',(126.452,-78.0505,1.81));
#1859=CARTESIAN_POINT('Origin',(127.952,-77.988,1.81));
#1860=CARTESIAN_POINT('',(127.452,-78.988,1.81));
#1861=CARTESIAN_POINT('Origin',(127.452,-77.988,1.81));
#1862=CARTESIAN_POINT('',(127.952,-77.988,0.810000000000002));
#1863=CARTESIAN_POINT('',(127.952,-77.988,0.810000000000002));
#1864=CARTESIAN_POINT('',(127.952,-78.988,1.81));
#1865=CARTESIAN_POINT('Origin',(127.952,-77.988,1.81));
#1866=CARTESIAN_POINT('',(127.952,-78.988,1.81));
#1867=CARTESIAN_POINT('Origin',(127.452,-77.988,1.81));
#1868=CARTESIAN_POINT('Origin',(127.452,-77.988,1.81));
#1869=CARTESIAN_POINT('Origin',(127.952,-77.738,5.81));
#1870=CARTESIAN_POINT('',(126.452,-77.738,5.81));
#1871=CARTESIAN_POINT('',(126.452,-77.738,0.810000000000002));
#1872=CARTESIAN_POINT('',(127.952,-77.738,5.81));
#1873=CARTESIAN_POINT('',(127.952,-77.738,5.81));
#1874=CARTESIAN_POINT('',(127.952,-77.738,0.810000000000002));
#1875=CARTESIAN_POINT('',(127.952,-77.738,3.685));
#1876=CARTESIAN_POINT('',(127.952,-77.738,0.810000000000002));
#1877=CARTESIAN_POINT('Origin',(126.452,-78.363,3.31));
#1878=CARTESIAN_POINT('',(126.452,-77.988,5.81));
#1879=CARTESIAN_POINT('',(126.452,-77.988,2.06));
#1880=CARTESIAN_POINT('',(126.452,-55.232,5.81));
#1881=CARTESIAN_POINT('Origin',(127.452,-77.988,2.06));
#1882=CARTESIAN_POINT('',(127.452,-78.988,5.81));
#1883=CARTESIAN_POINT('',(127.452,-78.988,2.06));
#1884=CARTESIAN_POINT('Origin',(127.452,-77.988,5.81));
#1885=CARTESIAN_POINT('Origin',(127.952,-78.988,0.810000000000002));
#1886=CARTESIAN_POINT('',(127.952,-78.988,5.81));
#1887=CARTESIAN_POINT('',(127.952,-78.988,1.185));
#1888=CARTESIAN_POINT('',(127.952,-78.988,5.81));
#1889=CARTESIAN_POINT('Origin',(127.952,-67.488,1.81));
#1890=CARTESIAN_POINT('',(127.452,-67.488,0.810000000000002));
#1891=CARTESIAN_POINT('',(127.452,-66.488,1.81));
#1892=CARTESIAN_POINT('Origin',(127.452,-67.488,1.81));
#1893=CARTESIAN_POINT('',(127.952,-66.488,1.81));
#1894=CARTESIAN_POINT('',(127.952,-66.488,1.81));
#1895=CARTESIAN_POINT('',(127.952,-67.488,0.810000000000002));
#1896=CARTESIAN_POINT('Origin',(127.952,-67.488,1.81));
#1897=CARTESIAN_POINT('',(127.952,-67.488,0.810000000000002));
#1898=CARTESIAN_POINT('Origin',(127.452,-66.8005,1.81));
#1899=CARTESIAN_POINT('',(127.452,-67.738,0.810000000000002));
#1900=CARTESIAN_POINT('',(126.452,-67.738,1.81));
#1901=CARTESIAN_POINT('Origin',(127.452,-67.738,1.81));
#1902=CARTESIAN_POINT('',(126.452,-67.488,1.81));
#1903=CARTESIAN_POINT('',(126.452,-66.8005,1.81));
#1904=CARTESIAN_POINT('Origin',(127.452,-67.488,1.81));
#1905=CARTESIAN_POINT('',(127.452,-66.8005,0.810000000000002));
#1906=CARTESIAN_POINT('Origin',(127.452,-67.488,1.81));
#1907=CARTESIAN_POINT('Origin',(127.452,-67.488,1.81));
#1908=CARTESIAN_POINT('Origin',(127.952,-66.488,5.81));
#1909=CARTESIAN_POINT('',(127.452,-66.488,5.81));
#1910=CARTESIAN_POINT('',(127.452,-66.488,4.56));
#1911=CARTESIAN_POINT('',(127.952,-66.488,5.81));
#1912=CARTESIAN_POINT('',(127.952,-66.488,5.81));
#1913=CARTESIAN_POINT('',(127.952,-66.488,3.685));
#1914=CARTESIAN_POINT('Origin',(127.452,-67.488,4.56));
#1915=CARTESIAN_POINT('',(126.452,-67.488,5.81));
#1916=CARTESIAN_POINT('',(126.452,-67.488,4.56));
#1917=CARTESIAN_POINT('Origin',(127.452,-67.488,5.81));
#1918=CARTESIAN_POINT('Origin',(126.452,-67.113,3.31));
#1919=CARTESIAN_POINT('',(126.452,-67.738,5.81));
#1920=CARTESIAN_POINT('',(126.452,-67.738,10.81));
#1921=CARTESIAN_POINT('',(126.452,-55.232,5.81));
#1922=CARTESIAN_POINT('Origin',(127.952,-77.738,0.810000000000002));
#1923=CARTESIAN_POINT('',(127.952,-66.235,0.810000000000002));
#1924=CARTESIAN_POINT('Origin',(127.952,-66.488,0.810000000000002));
#1925=CARTESIAN_POINT('',(127.952,-67.738,0.810000000000002));
#1926=CARTESIAN_POINT('',(127.952,-60.61,0.810000000000002));
#1927=CARTESIAN_POINT('',(127.952,-67.738,0.810000000000002));
#1928=CARTESIAN_POINT('Origin',(127.952,-67.738,0.810000000000002));
#1929=CARTESIAN_POINT('',(127.952,-67.738,5.81));
#1930=CARTESIAN_POINT('',(127.952,-67.738,1.185));
#1931=CARTESIAN_POINT('',(127.952,-67.738,5.81));
#1932=CARTESIAN_POINT('Origin',(127.952,-54.732,1.56));
#1933=CARTESIAN_POINT('',(127.952,-63.735,5.81));
#1934=CARTESIAN_POINT('',(127.952,-55.232,5.81));
#1935=CARTESIAN_POINT('',(127.952,-63.735,5.81));
#1936=CARTESIAN_POINT('',(127.952,-55.232,0.36));
#1937=CARTESIAN_POINT('',(127.952,-55.232,1.56));
#1938=CARTESIAN_POINT('',(127.952,-90.244,0.36));
#1939=CARTESIAN_POINT('',(127.952,-63.7349956002203,0.36));
#1940=CARTESIAN_POINT('',(127.952,-90.244,5.81));
#1941=CARTESIAN_POINT('',(127.952,-90.244,1.56));
#1942=CARTESIAN_POINT('',(127.952,-63.735,5.81));
#1943=CARTESIAN_POINT('Origin',(150.306,-67.4255,1.81));
#1944=CARTESIAN_POINT('',(151.306,-67.738,1.81));
#1945=CARTESIAN_POINT('',(150.306,-67.738,0.810000000000002));
#1946=CARTESIAN_POINT('Origin',(150.306,-67.738,1.81));
#1947=CARTESIAN_POINT('',(150.306,-67.488,0.810000000000002));
#1948=CARTESIAN_POINT('',(150.306,-67.4255,0.810000000000002));
#1949=CARTESIAN_POINT('',(151.306,-67.488,1.81));
#1950=CARTESIAN_POINT('Origin',(150.306,-67.488,1.81));
#1951=CARTESIAN_POINT('',(151.306,-67.4255,1.81));
#1952=CARTESIAN_POINT('Origin',(149.806,-67.488,1.81));
#1953=CARTESIAN_POINT('',(150.306,-66.488,1.81));
#1954=CARTESIAN_POINT('Origin',(150.306,-67.488,1.81));
#1955=CARTESIAN_POINT('',(149.806,-67.488,0.810000000000002));
#1956=CARTESIAN_POINT('',(149.806,-67.488,0.810000000000002));
#1957=CARTESIAN_POINT('',(149.806,-66.488,1.81));
#1958=CARTESIAN_POINT('Origin',(149.806,-67.488,1.81));
#1959=CARTESIAN_POINT('',(149.806,-66.488,1.81));
#1960=CARTESIAN_POINT('Origin',(150.306,-67.488,1.81));
#1961=CARTESIAN_POINT('Origin',(150.306,-67.488,1.81));
#1962=CARTESIAN_POINT('Origin',(149.806,-67.738,5.81));
#1963=CARTESIAN_POINT('',(151.306,-67.738,5.81));
#1964=CARTESIAN_POINT('',(151.306,-67.738,10.81));
#1965=CARTESIAN_POINT('',(149.806,-67.738,5.81));
#1966=CARTESIAN_POINT('',(149.806,-67.738,5.81));
#1967=CARTESIAN_POINT('',(149.806,-67.738,0.810000000000002));
#1968=CARTESIAN_POINT('',(149.806,-67.738,3.685));
#1969=CARTESIAN_POINT('',(149.806,-67.738,0.810000000000002));
#1970=CARTESIAN_POINT('Origin',(151.306,-67.113,3.31));
#1971=CARTESIAN_POINT('',(151.306,-67.488,5.81));
#1972=CARTESIAN_POINT('',(151.306,-67.488,2.06));
#1973=CARTESIAN_POINT('',(151.306,-90.244,5.81));
#1974=CARTESIAN_POINT('Origin',(150.306,-67.488,2.06));
#1975=CARTESIAN_POINT('',(150.306,-66.488,5.81));
#1976=CARTESIAN_POINT('',(150.306,-66.488,2.06));
#1977=CARTESIAN_POINT('Origin',(150.306,-67.488,5.81));
#1978=CARTESIAN_POINT('Origin',(149.806,-66.488,0.810000000000002));
#1979=CARTESIAN_POINT('',(149.806,-66.488,5.81));
#1980=CARTESIAN_POINT('',(149.806,-66.488,1.185));
#1981=CARTESIAN_POINT('',(149.806,-66.488,5.81));
#1982=CARTESIAN_POINT('Origin',(149.806,-77.988,1.81));
#1983=CARTESIAN_POINT('',(150.306,-77.988,0.810000000000002));
#1984=CARTESIAN_POINT('',(150.306,-78.988,1.81));
#1985=CARTESIAN_POINT('Origin',(150.306,-77.988,1.81));
#1986=CARTESIAN_POINT('',(149.806,-78.988,1.81));
#1987=CARTESIAN_POINT('',(149.806,-78.988,1.81));
#1988=CARTESIAN_POINT('',(149.806,-77.988,0.810000000000002));
#1989=CARTESIAN_POINT('Origin',(149.806,-77.988,1.81));
#1990=CARTESIAN_POINT('',(149.806,-77.988,0.810000000000002));
#1991=CARTESIAN_POINT('Origin',(150.306,-78.6755,1.81));
#1992=CARTESIAN_POINT('',(150.306,-77.738,0.810000000000002));
#1993=CARTESIAN_POINT('',(151.306,-77.738,1.81));
#1994=CARTESIAN_POINT('Origin',(150.306,-77.738,1.81));
#1995=CARTESIAN_POINT('',(151.306,-77.988,1.81));
#1996=CARTESIAN_POINT('',(151.306,-78.6755,1.81));
#1997=CARTESIAN_POINT('Origin',(150.306,-77.988,1.81));
#1998=CARTESIAN_POINT('',(150.306,-78.6755,0.810000000000002));
#1999=CARTESIAN_POINT('Origin',(150.306,-77.988,1.81));
#2000=CARTESIAN_POINT('Origin',(150.306,-77.988,1.81));
#2001=CARTESIAN_POINT('Origin',(149.806,-78.988,5.81));
#2002=CARTESIAN_POINT('',(150.306,-78.988,5.81));
#2003=CARTESIAN_POINT('',(150.306,-78.988,4.56));
#2004=CARTESIAN_POINT('',(149.806,-78.988,5.81));
#2005=CARTESIAN_POINT('',(149.806,-78.988,5.81));
#2006=CARTESIAN_POINT('',(149.806,-78.988,3.685));
#2007=CARTESIAN_POINT('Origin',(150.306,-77.988,4.56));
#2008=CARTESIAN_POINT('',(151.306,-77.988,5.81));
#2009=CARTESIAN_POINT('',(151.306,-77.988,4.56));
#2010=CARTESIAN_POINT('Origin',(150.306,-77.988,5.81));
#2011=CARTESIAN_POINT('Origin',(151.306,-78.363,3.31));
#2012=CARTESIAN_POINT('',(151.306,-77.738,5.81));
#2013=CARTESIAN_POINT('',(151.306,-77.738,0.810000000000002));
#2014=CARTESIAN_POINT('',(151.306,-90.244,5.81));
#2015=CARTESIAN_POINT('Origin',(138.879,-72.738,5.81));
#2016=CARTESIAN_POINT('',(128.452,-90.744,5.81));
#2017=CARTESIAN_POINT('Origin',(128.452,-90.244,5.81));
#2018=CARTESIAN_POINT('',(149.306,-90.744,5.81));
#2019=CARTESIAN_POINT('',(133.4155,-90.744,5.81));
#2020=CARTESIAN_POINT('',(149.806,-90.244,5.81));
#2021=CARTESIAN_POINT('Origin',(149.306,-90.244,5.81));
#2022=CARTESIAN_POINT('',(149.806,-81.741,5.81));
#2023=CARTESIAN_POINT('',(149.806,-77.738,5.81));
#2024=CARTESIAN_POINT('',(149.806,-77.738,5.81));
#2025=CARTESIAN_POINT('',(149.806,-81.741,5.81));
#2026=CARTESIAN_POINT('',(149.806,-55.232,5.81));
#2027=CARTESIAN_POINT('',(149.806,-81.741,5.81));
#2028=CARTESIAN_POINT('',(149.306,-54.732,5.81));
#2029=CARTESIAN_POINT('Origin',(149.306,-55.232,5.81));
#2030=CARTESIAN_POINT('',(146.25,-54.732,5.81));
#2031=CARTESIAN_POINT('',(144.3425,-54.732,5.81));
#2032=CARTESIAN_POINT('',(146.25,-55.732,5.81));
#2033=CARTESIAN_POINT('',(146.25,-64.235,5.81));
#2034=CARTESIAN_POINT('',(148.806,-55.732,5.81));
#2035=CARTESIAN_POINT('',(141.5645,-55.732,5.81));
#2036=CARTESIAN_POINT('',(148.806,-89.744,5.81));
#2037=CARTESIAN_POINT('',(148.806,-64.235,5.81));
#2038=CARTESIAN_POINT('',(128.952,-89.744,5.81));
#2039=CARTESIAN_POINT('',(143.8425,-89.744,5.81));
#2040=CARTESIAN_POINT('',(128.952,-55.732,5.81));
#2041=CARTESIAN_POINT('',(128.952,-81.241,5.81));
#2042=CARTESIAN_POINT('',(131.25,-55.732,5.81));
#2043=CARTESIAN_POINT('',(141.5645,-55.732,5.81));
#2044=CARTESIAN_POINT('',(131.25,-54.732,5.81));
#2045=CARTESIAN_POINT('',(131.25,-63.235,5.81));
#2046=CARTESIAN_POINT('',(128.452,-54.732,5.81));
#2047=CARTESIAN_POINT('',(144.3425,-54.732,5.81));
#2048=CARTESIAN_POINT('Origin',(128.452,-55.232,5.81));
#2049=CARTESIAN_POINT('Origin',(149.806,-78.988,0.810000000000002));
#2050=CARTESIAN_POINT('',(149.806,-77.738,0.810000000000002));
#2051=CARTESIAN_POINT('',(149.806,-84.866,0.810000000000002));
#2052=CARTESIAN_POINT('',(149.806,-77.738,0.810000000000002));
#2053=CARTESIAN_POINT('Origin',(149.806,-67.738,0.810000000000002));
#2054=CARTESIAN_POINT('',(149.806,-79.241,0.810000000000002));
#2055=CARTESIAN_POINT('Origin',(149.806,-90.744,1.56));
#2056=CARTESIAN_POINT('',(149.806,-77.738,1.185));
#2057=CARTESIAN_POINT('',(149.806,-90.244,0.36));
#2058=CARTESIAN_POINT('',(149.806,-90.244,1.56));
#2059=CARTESIAN_POINT('',(149.806,-55.232,0.36));
#2060=CARTESIAN_POINT('',(149.806,-81.7409956002203,0.36));
#2061=CARTESIAN_POINT('',(149.806,-55.232,1.56));
#2062=CARTESIAN_POINT('Origin',(149.806,-77.738,0.810000000000002));
#2063=CARTESIAN_POINT('Origin',(147.49,-88.606,1.56));
#2064=CARTESIAN_POINT('',(147.49,-88.606,1.56));
#2065=CARTESIAN_POINT('',(130.36,-88.606,1.56));
#2066=CARTESIAN_POINT('',(143.1845,-88.606,1.56));
#2067=CARTESIAN_POINT('',(147.49,-88.606,0.56));
#2068=CARTESIAN_POINT('',(147.49,-88.606,1.56));
#2069=CARTESIAN_POINT('',(130.36,-88.606,0.56));
#2070=CARTESIAN_POINT('',(147.49,-88.606,0.56));
#2071=CARTESIAN_POINT('',(130.36,-88.606,1.56));
#2072=CARTESIAN_POINT('Origin',(130.36,-88.606,1.56));
#2073=CARTESIAN_POINT('',(130.36,-78.106,1.56));
#2074=CARTESIAN_POINT('',(130.36,-80.6719956002203,1.56));
#2075=CARTESIAN_POINT('',(130.36,-78.106,0.56));
#2076=CARTESIAN_POINT('',(130.36,-88.606,0.56));
#2077=CARTESIAN_POINT('',(130.36,-78.106,1.56));
#2078=CARTESIAN_POINT('Origin',(130.36,-78.106,1.56));
#2079=CARTESIAN_POINT('',(147.49,-78.106,1.56));
#2080=CARTESIAN_POINT('',(134.6195,-78.106,1.56));
#2081=CARTESIAN_POINT('',(147.49,-78.106,0.56));
#2082=CARTESIAN_POINT('',(130.36,-78.106,0.56));
#2083=CARTESIAN_POINT('',(147.49,-78.106,1.56));
#2084=CARTESIAN_POINT('Origin',(147.49,-78.106,1.56));
#2085=CARTESIAN_POINT('',(147.49,-75.4219956002203,1.56));
#2086=CARTESIAN_POINT('',(147.49,-78.106,0.56));
#2087=CARTESIAN_POINT('Origin',(132.226,-75.226,1.56));
#2088=CARTESIAN_POINT('',(132.226,-75.226,1.56));
#2089=CARTESIAN_POINT('',(130.226,-75.226,1.56));
#2090=CARTESIAN_POINT('',(135.5525,-75.226,1.56));
#2091=CARTESIAN_POINT('',(132.226,-75.226,0.56));
#2092=CARTESIAN_POINT('',(132.226,-75.226,1.56));
#2093=CARTESIAN_POINT('',(130.226,-75.226,0.56));
#2094=CARTESIAN_POINT('',(132.226,-75.226,0.56));
#2095=CARTESIAN_POINT('',(130.226,-75.226,1.56));
#2096=CARTESIAN_POINT('Origin',(130.226,-75.226,1.56));
#2097=CARTESIAN_POINT('',(130.226,-57.986,1.56));
#2098=CARTESIAN_POINT('',(130.226,-73.9819956002203,1.56));
#2099=CARTESIAN_POINT('',(130.226,-57.986,0.56));
#2100=CARTESIAN_POINT('',(130.226,-75.226,0.56));
#2101=CARTESIAN_POINT('',(130.226,-57.986,1.56));
#2102=CARTESIAN_POINT('Origin',(130.226,-57.986,1.56));
#2103=CARTESIAN_POINT('',(132.226,-57.986,1.56));
#2104=CARTESIAN_POINT('',(134.5525,-57.986,1.56));
#2105=CARTESIAN_POINT('',(132.226,-57.986,0.56));
#2106=CARTESIAN_POINT('',(130.226,-57.986,0.56));
#2107=CARTESIAN_POINT('',(132.226,-57.986,1.56));
#2108=CARTESIAN_POINT('Origin',(132.226,-57.986,1.56));
#2109=CARTESIAN_POINT('',(132.226,-65.3619956002203,1.56));
#2110=CARTESIAN_POINT('',(132.226,-57.986,0.56));
#2111=CARTESIAN_POINT('Origin',(147.466,-75.226,1.56));
#2112=CARTESIAN_POINT('',(147.466,-75.226,1.56));
#2113=CARTESIAN_POINT('',(145.466,-75.226,1.56));
#2114=CARTESIAN_POINT('',(143.1725,-75.226,1.56));
#2115=CARTESIAN_POINT('',(147.466,-75.226,0.56));
#2116=CARTESIAN_POINT('',(147.466,-75.226,1.56));
#2117=CARTESIAN_POINT('',(145.466,-75.226,0.56));
#2118=CARTESIAN_POINT('',(147.466,-75.226,0.56));
#2119=CARTESIAN_POINT('',(145.466,-75.226,1.56));
#2120=CARTESIAN_POINT('Origin',(145.466,-75.226,1.56));
#2121=CARTESIAN_POINT('',(145.466,-57.986,1.56));
#2122=CARTESIAN_POINT('',(145.466,-73.9819956002203,1.56));
#2123=CARTESIAN_POINT('',(145.466,-57.986,0.56));
#2124=CARTESIAN_POINT('',(145.466,-75.226,0.56));
#2125=CARTESIAN_POINT('',(145.466,-57.986,1.56));
#2126=CARTESIAN_POINT('Origin',(145.466,-57.986,1.56));
#2127=CARTESIAN_POINT('',(147.466,-57.986,1.56));
#2128=CARTESIAN_POINT('',(142.1725,-57.986,1.56));
#2129=CARTESIAN_POINT('',(147.466,-57.986,0.56));
#2130=CARTESIAN_POINT('',(145.466,-57.986,0.56));
#2131=CARTESIAN_POINT('',(147.466,-57.986,1.56));
#2132=CARTESIAN_POINT('Origin',(147.466,-57.986,1.56));
#2133=CARTESIAN_POINT('',(147.466,-65.3619956002203,1.56));
#2134=CARTESIAN_POINT('',(147.466,-57.986,0.56));
#2135=CARTESIAN_POINT('Origin',(146.466,-66.606,0.56));
#2136=CARTESIAN_POINT('Origin',(131.226,-66.606,0.56));
#2137=CARTESIAN_POINT('Origin',(138.925,-83.356,0.56));
#2138=CARTESIAN_POINT('Origin',(138.879,-72.7379912004405,1.56));
#2139=CARTESIAN_POINT('',(148.806,-55.732,1.56));
#2140=CARTESIAN_POINT('',(128.952,-55.732,1.56));
#2141=CARTESIAN_POINT('',(133.9155,-55.732,1.56));
#2142=CARTESIAN_POINT('',(128.952,-89.744,1.56));
#2143=CARTESIAN_POINT('',(128.952,-81.2409956002203,1.56));
#2144=CARTESIAN_POINT('',(148.806,-89.744,1.56));
#2145=CARTESIAN_POINT('',(143.8425,-89.744,1.56));
#2146=CARTESIAN_POINT('',(148.806,-64.2349956002203,1.56));
#2147=CARTESIAN_POINT('Origin',(138.879,-72.7379912004405,-0.14));
#2148=CARTESIAN_POINT('',(149.306,-90.244,-0.14));
#2149=CARTESIAN_POINT('',(149.306,-55.232,-0.14));
#2150=CARTESIAN_POINT('',(149.306,-81.7409956002203,-0.14));
#2151=CARTESIAN_POINT('',(128.452,-90.244,-0.14));
#2152=CARTESIAN_POINT('',(133.4155,-90.244,-0.14));
#2153=CARTESIAN_POINT('',(128.452,-55.232,-0.14));
#2154=CARTESIAN_POINT('',(128.452,-63.7349956002203,-0.14));
#2155=CARTESIAN_POINT('',(144.3425,-55.232,-0.14));
#2156=CARTESIAN_POINT('Origin',(149.806,-54.732,1.56));
#2157=CARTESIAN_POINT('',(131.25,-54.732,4.61));
#2158=CARTESIAN_POINT('',(131.25,-54.732,1.56));
#2159=CARTESIAN_POINT('',(131.75,-54.732,4.11));
#2160=CARTESIAN_POINT('Origin',(131.75,-54.732,4.61));
#2161=CARTESIAN_POINT('',(145.75,-54.732,4.11));
#2162=CARTESIAN_POINT('',(148.806,-54.732,4.11));
#2163=CARTESIAN_POINT('',(146.25,-54.732,4.61));
#2164=CARTESIAN_POINT('Origin',(145.75,-54.732,4.61));
#2165=CARTESIAN_POINT('',(146.25,-54.732,1.56));
#2166=CARTESIAN_POINT('',(149.306,-54.732,0.36));
#2167=CARTESIAN_POINT('',(149.306,-54.732,1.56));
#2168=CARTESIAN_POINT('',(128.452,-54.732,0.36));
#2169=CARTESIAN_POINT('',(144.3425,-54.732,0.36));
#2170=CARTESIAN_POINT('',(128.452,-54.732,1.56));
#2171=CARTESIAN_POINT('Origin',(127.952,-90.744,1.56));
#2172=CARTESIAN_POINT('',(128.452,-90.744,0.36));
#2173=CARTESIAN_POINT('',(128.452,-90.744,1.56));
#2174=CARTESIAN_POINT('',(149.306,-90.744,0.36));
#2175=CARTESIAN_POINT('',(133.4155,-90.744,0.36));
#2176=CARTESIAN_POINT('',(149.306,-90.744,1.56));
#2177=CARTESIAN_POINT('Origin',(133.4155,-90.244,0.36));
#2178=CARTESIAN_POINT('Origin',(128.452,-90.244,0.36));
#2179=CARTESIAN_POINT('Origin',(149.306,-90.244,0.36));
#2180=CARTESIAN_POINT('Origin',(128.452,-63.7349956002203,0.36));
#2181=CARTESIAN_POINT('Origin',(128.452,-55.232,0.36));
#2182=CARTESIAN_POINT('Origin',(128.452,-90.244,0.36));
#2183=CARTESIAN_POINT('Origin',(144.3425,-55.232,0.36));
#2184=CARTESIAN_POINT('Origin',(149.306,-55.232,0.36));
#2185=CARTESIAN_POINT('Origin',(128.452,-55.232,0.36));
#2186=CARTESIAN_POINT('Origin',(149.306,-81.7409956002203,0.36));
#2187=CARTESIAN_POINT('Origin',(149.306,-90.244,0.36));
#2188=CARTESIAN_POINT('Origin',(149.306,-55.232,0.36));
#2189=CARTESIAN_POINT('Origin',(128.452,-55.232,1.56));
#2190=CARTESIAN_POINT('Origin',(128.452,-55.232,0.36));
#2191=CARTESIAN_POINT('Origin',(149.306,-90.244,1.56));
#2192=CARTESIAN_POINT('Origin',(149.306,-90.244,0.36));
#2193=CARTESIAN_POINT('Origin',(149.306,-55.232,0.36));
#2194=CARTESIAN_POINT('Origin',(149.306,-55.232,0.36));
#2195=CARTESIAN_POINT('Origin',(128.452,-90.244,1.56));
#2196=CARTESIAN_POINT('Origin',(128.452,-90.244,0.36));
#2197=CARTESIAN_POINT('Origin',(128.452,-55.232,0.36));
#2198=CARTESIAN_POINT('Origin',(149.306,-90.244,0.36));
#2199=CARTESIAN_POINT('Origin',(128.452,-90.244,0.36));
#2200=CARTESIAN_POINT('Origin',(131.25,-53.732,1.56));
#2201=CARTESIAN_POINT('',(131.25,-55.732,4.61));
#2202=CARTESIAN_POINT('',(131.25,-55.732,1.56));
#2203=CARTESIAN_POINT('',(131.25,-54.732,4.61));
#2204=CARTESIAN_POINT('Origin',(131.75,-54.732,4.61));
#2205=CARTESIAN_POINT('',(131.75,-55.732,4.11));
#2206=CARTESIAN_POINT('Origin',(131.75,-55.732,4.61));
#2207=CARTESIAN_POINT('',(131.75,-54.732,4.11));
#2208=CARTESIAN_POINT('Origin',(128.952,-55.732,4.11));
#2209=CARTESIAN_POINT('',(145.75,-55.732,4.11));
#2210=CARTESIAN_POINT('',(145.75,-55.732,4.11));
#2211=CARTESIAN_POINT('',(148.806,-55.732,4.11));
#2212=CARTESIAN_POINT('Origin',(145.75,-55.732,4.61));
#2213=CARTESIAN_POINT('',(146.25,-55.732,4.61));
#2214=CARTESIAN_POINT('Origin',(145.75,-55.732,4.61));
#2215=CARTESIAN_POINT('',(146.25,-55.732,4.61));
#2216=CARTESIAN_POINT('Origin',(149.306,-55.232,1.56));
#2217=CARTESIAN_POINT('Origin',(146.25,-55.732,1.56));
#2218=CARTESIAN_POINT('',(146.25,-55.732,1.56));
#2219=CARTESIAN_POINT('Origin',(144.25,-55.732,1.56));
#2220=CARTESIAN_POINT('',(128.952,-55.732,1.56));
#2221=CARTESIAN_POINT('',(148.806,-55.732,1.56));
#2222=CARTESIAN_POINT('Origin',(148.806,-55.732,1.56));
#2223=CARTESIAN_POINT('',(148.806,-89.744,1.56));
#2224=CARTESIAN_POINT('Origin',(148.806,-89.744,1.56));
#2225=CARTESIAN_POINT('',(128.952,-89.744,1.56));
#2226=CARTESIAN_POINT('Origin',(128.952,-89.744,1.56));
#2227=CARTESIAN_POINT('',(0.,0.,0.));
#2228=UNCERTAINTY_MEASURE_WITH_UNIT(LENGTH_MEASURE(0.01),#2234,
'DISTANCE_ACCURACY_VALUE',
'Maximum model space distance between geometric entities at asserted c
onnectivities');
#2229=UNCERTAINTY_MEASURE_WITH_UNIT(LENGTH_MEASURE(0.01),#2234,
'DISTANCE_ACCURACY_VALUE',
'Maximum model space distance between geometric entities at asserted c
onnectivities');
#2230=UNCERTAINTY_MEASURE_WITH_UNIT(LENGTH_MEASURE(0.01),#2234,
'DISTANCE_ACCURACY_VALUE',
'Maximum model space distance between geometric entities at asserted c
onnectivities');
#2231=(
GEOMETRIC_REPRESENTATION_CONTEXT(3)
GLOBAL_UNCERTAINTY_ASSIGNED_CONTEXT((#2228))
GLOBAL_UNIT_ASSIGNED_CONTEXT((#2234,#2236,#2237))
REPRESENTATION_CONTEXT('','3D')
);
#2232=(
GEOMETRIC_REPRESENTATION_CONTEXT(3)
GLOBAL_UNCERTAINTY_ASSIGNED_CONTEXT((#2229))
GLOBAL_UNIT_ASSIGNED_CONTEXT((#2234,#2236,#2237))
REPRESENTATION_CONTEXT('','3D')
);
#2233=(
GEOMETRIC_REPRESENTATION_CONTEXT(3)
GLOBAL_UNCERTAINTY_ASSIGNED_CONTEXT((#2230))
GLOBAL_UNIT_ASSIGNED_CONTEXT((#2234,#2236,#2237))
REPRESENTATION_CONTEXT('','3D')
);
#2234=(
LENGTH_UNIT()
NAMED_UNIT(*)
SI_UNIT(.MILLI.,.METRE.)
);
#2235=(
LENGTH_UNIT()
NAMED_UNIT(*)
SI_UNIT($,.METRE.)
);
#2236=(
NAMED_UNIT(*)
PLANE_ANGLE_UNIT()
SI_UNIT($,.RADIAN.)
);
#2237=(
NAMED_UNIT(*)
SI_UNIT($,.STERADIAN.)
SOLID_ANGLE_UNIT()
);
#2238=SHAPE_DEFINITION_REPRESENTATION(#2240,#2243);
#2239=SHAPE_DEFINITION_REPRESENTATION(#2241,#2244);
#2240=PRODUCT_DEFINITION_SHAPE('',$,#2246);
#2241=PRODUCT_DEFINITION_SHAPE('',$,#2247);
#2242=PRODUCT_DEFINITION_SHAPE($,$,#14);
#2243=SHAPE_REPRESENTATION('',(#1340,#1461),#2231);
#2244=SHAPE_REPRESENTATION('',(#1341),#2232);
#2245=PRODUCT_DEFINITION_CONTEXT('part definition',#2253,'design');
#2246=PRODUCT_DEFINITION('TxTroller_PCB 1','TxTroller',#2248,#2245);
#2247=PRODUCT_DEFINITION('2026-09-17-13-58-33-571','Case',#2249,#2245);
#2248=PRODUCT_DEFINITION_FORMATION('',$,#2255);
#2249=PRODUCT_DEFINITION_FORMATION('',$,#2256);
#2250=PRODUCT_RELATED_PRODUCT_CATEGORY('TxTroller','TxTroller',(#2255));
#2251=PRODUCT_RELATED_PRODUCT_CATEGORY('Case','Case',(#2256));
#2252=APPLICATION_PROTOCOL_DEFINITION('international standard',
'automotive_design',2009,#2253);
#2253=APPLICATION_CONTEXT(
'Core Data for Automotive Mechanical Design Process');
#2254=PRODUCT_CONTEXT('part definition',#2253,'mechanical');
#2255=PRODUCT('TxTroller_PCB 1','TxTroller','KiCad electronic assembly',
(#2254));
#2256=PRODUCT('2026-09-17-13-58-33-571','Case',$,(#2254));
#2257=PRESENTATION_STYLE_ASSIGNMENT((#2258));
#2258=SURFACE_STYLE_USAGE(.BOTH.,#2259);
#2259=SURFACE_SIDE_STYLE('',(#2260));
#2260=SURFACE_STYLE_FILL_AREA(#2261);
#2261=FILL_AREA_STYLE('Steel - Satin',(#2262));
#2262=FILL_AREA_STYLE_COLOUR('Steel - Satin',#2263);
#2263=COLOUR_RGB('Steel - Satin',0.627450980392157,0.627450980392157,0.627450980392157);
ENDSEC;
END-ISO-10303-21;
